<svg width="298" height="84" viewBox="0 0 298 84" fill="none" xmlns="http://www.w3.org/2000/svg">
<g clip-path="url(#clip0)">
<path d="M32.1071 60.777C28.9006 60.9656 26.1414 61.1355 23.4439 58.459C22.9161 57.9428 22.4573 57.3604 22.0791 56.7263C21.8769 56.3928 21.7669 56.0116 21.7602 55.6217C21.7535 55.2318 21.8504 54.847 22.041 54.5068C22.2317 54.1666 22.5092 53.883 22.8453 53.6851C23.1813 53.4872 23.5639 53.3821 23.9539 53.3804H26.8547C27.1722 53.3804 27.4767 53.2543 27.7012 53.0298C27.9257 52.8053 28.0518 52.5008 28.0518 52.1832V18.6352C28.0876 16.5377 27.348 14.5008 25.9749 12.9148C24.6018 11.3288 22.6917 10.3053 20.6107 10.0405C19.4613 9.9264 18.3009 10.0541 17.2039 10.4155C16.1069 10.7768 15.0976 11.3638 14.2411 12.1386C13.3845 12.9134 12.6996 13.8588 12.2304 14.9142C11.7612 15.9696 11.518 17.1115 11.5166 18.2664V52.1832C11.5166 52.5008 11.6427 52.8053 11.8672 53.0298C12.0918 53.2543 12.3963 53.3804 12.7138 53.3804H15.5024C16.3201 53.3855 17.1154 53.6489 17.7745 54.1328C18.4337 54.6168 18.9231 55.2966 19.1729 56.0753C19.6965 57.6228 20.5826 59.0227 21.7572 60.1581C25.2155 63.5938 28.9559 63.3693 32.2504 63.1667C35.4546 62.9718 38.216 62.8066 40.9136 65.4846C41.7478 66.2968 42.3989 67.2778 42.8232 68.3621C43.2476 69.4463 43.4354 70.6086 43.3742 71.7713C43.3774 72.0867 43.5049 72.388 43.7291 72.6099C43.9533 72.8317 44.256 72.9561 44.5713 72.956H44.583C44.9006 72.9528 45.204 72.8236 45.4263 72.5967C45.6486 72.3699 45.7717 72.064 45.7685 71.7464C45.8229 70.2721 45.5692 68.8026 45.0237 67.4319C44.4782 66.0611 43.6528 64.8192 42.6002 63.7855C39.1427 60.3514 35.4024 60.5759 32.1071 60.777ZM19.7846 50.9861H16.1953C15.5895 50.986 15.0084 50.7454 14.58 50.3169C14.1516 49.8885 13.9109 49.3075 13.9109 48.7016V18.2664C13.9124 17.3908 14.1092 16.5264 14.4871 15.7365C14.8651 14.9466 15.4146 14.251 16.0956 13.7004C16.7765 13.1499 17.5718 12.7583 18.4234 12.5542C19.275 12.3501 20.1614 12.3387 21.0179 12.5207C22.351 12.8273 23.5388 13.5816 24.383 14.6579C25.2273 15.7341 25.6771 17.0673 25.6574 18.4351V48.7016C25.6574 49.3075 25.4168 49.8885 24.9884 50.3169C24.56 50.7454 23.9789 50.986 23.3731 50.9861H19.7846Z" fill="#004324"/>
</g>
<g clip-path="url(#clip1)">
<path d="M54.1071 60.777C50.9006 60.9656 48.1414 61.1355 45.4439 58.459C44.9161 57.9428 44.4573 57.3604 44.0791 56.7263C43.8769 56.3928 43.7669 56.0116 43.7602 55.6217C43.7535 55.2318 43.8504 54.847 44.041 54.5068C44.2317 54.1666 44.5092 53.883 44.8453 53.6851C45.1813 53.4872 45.5639 53.3821 45.9539 53.3804H48.8547C49.1722 53.3804 49.4767 53.2543 49.7012 53.0298C49.9257 52.8053 50.0518 52.5008 50.0518 52.1832V18.6352C50.0876 16.5377 49.348 14.5008 47.9749 12.9148C46.6018 11.3288 44.6917 10.3053 42.6107 10.0405C41.4613 9.9264 40.3008 10.0541 39.2039 10.4155C38.1069 10.7768 37.0976 11.3638 36.2411 12.1386C35.3845 12.9134 34.6996 13.8588 34.2304 14.9142C33.7612 15.9696 33.518 17.1115 33.5166 18.2664V52.1832C33.5166 52.5008 33.6427 52.8053 33.8672 53.0298C34.0918 53.2543 34.3963 53.3804 34.7138 53.3804H37.5024C38.3201 53.3855 39.1154 53.6489 39.7745 54.1328C40.4337 54.6168 40.9231 55.2966 41.1729 56.0753C41.6965 57.6228 42.5826 59.0227 43.7572 60.1581C47.2155 63.5938 50.9559 63.3693 54.2504 63.1667C57.4546 62.9718 60.216 62.8066 62.9136 65.4846C63.7478 66.2968 64.3989 67.2778 64.8232 68.3621C65.2476 69.4463 65.4354 70.6086 65.3742 71.7713C65.3774 72.0867 65.5049 72.388 65.7291 72.6099C65.9533 72.8317 66.2559 72.9561 66.5713 72.956H66.583C66.9006 72.9528 67.204 72.8236 67.4263 72.5967C67.6486 72.3699 67.7717 72.064 67.7685 71.7464C67.8229 70.2721 67.5692 68.8026 67.0237 67.4319C66.4782 66.0611 65.6528 64.8192 64.6002 63.7855C61.1427 60.3514 57.4024 60.5759 54.1071 60.777ZM41.7846 50.9861H38.1953C37.5895 50.986 37.0084 50.7454 36.58 50.3169C36.1516 49.8885 35.9109 49.3075 35.9109 48.7016V18.2664C35.9124 17.3908 36.1092 16.5264 36.4871 15.7365C36.8651 14.9466 37.4146 14.251 38.0956 13.7004C38.7765 13.1499 39.5718 12.7583 40.4234 12.5542C41.275 12.3501 42.1614 12.3387 43.0179 12.5207C44.351 12.8273 45.5388 13.5816 46.383 14.6579C47.2273 15.7341 47.6771 17.0673 47.6574 18.4351V48.7016C47.6574 49.3075 47.4168 49.8885 46.9884 50.3169C46.56 50.7454 45.9789 50.986 45.3731 50.9861H41.7846Z" fill="#004324"/>
</g>
<g clip-path="url(#clip2)">
<path d="M76.1071 60.777C72.9006 60.9656 70.1414 61.1355 67.4439 58.459C66.9161 57.9428 66.4573 57.3604 66.0791 56.7263C65.8769 56.3928 65.7669 56.0116 65.7602 55.6217C65.7535 55.2318 65.8504 54.847 66.041 54.5068C66.2317 54.1666 66.5092 53.883 66.8453 53.6851C67.1813 53.4872 67.5639 53.3821 67.9539 53.3804H70.8547C71.1722 53.3804 71.4767 53.2543 71.7012 53.0298C71.9257 52.8053 72.0518 52.5008 72.0518 52.1832V18.6352C72.0876 16.5377 71.348 14.5008 69.9749 12.9148C68.6018 11.3288 66.6917 10.3053 64.6107 10.0405C63.4613 9.9264 62.3008 10.0541 61.2039 10.4155C60.1069 10.7768 59.0976 11.3638 58.2411 12.1386C57.3845 12.9134 56.6996 13.8588 56.2304 14.9142C55.7612 15.9696 55.518 17.1115 55.5166 18.2664V52.1832C55.5166 52.5008 55.6427 52.8053 55.8672 53.0298C56.0918 53.2543 56.3963 53.3804 56.7138 53.3804H59.5024C60.3201 53.3855 61.1154 53.6489 61.7745 54.1328C62.4337 54.6168 62.9231 55.2966 63.1729 56.0753C63.6965 57.6228 64.5826 59.0227 65.7572 60.1581C69.2155 63.5938 72.9559 63.3693 76.2504 63.1667C79.4546 62.9718 82.216 62.8066 84.9136 65.4846C85.7478 66.2968 86.3989 67.2778 86.8232 68.3621C87.2476 69.4463 87.4354 70.6086 87.3742 71.7713C87.3774 72.0867 87.5049 72.388 87.7291 72.6099C87.9533 72.8317 88.2559 72.9561 88.5713 72.956H88.583C88.9006 72.9528 89.204 72.8236 89.4263 72.5967C89.6486 72.3699 89.7717 72.064 89.7685 71.7464C89.8229 70.2721 89.5692 68.8026 89.0237 67.4319C88.4782 66.0611 87.6528 64.8192 86.6002 63.7855C83.1427 60.3514 79.4024 60.5759 76.1071 60.777ZM63.7846 50.9861H60.1953C59.5895 50.986 59.0084 50.7454 58.58 50.3169C58.1516 49.8885 57.9109 49.3075 57.9109 48.7016V18.2664C57.9124 17.3908 58.1092 16.5264 58.4871 15.7365C58.8651 14.9466 59.4146 14.251 60.0956 13.7004C60.7765 13.1499 61.5718 12.7583 62.4234 12.5542C63.275 12.3501 64.1614 12.3387 65.0179 12.5207C66.351 12.8273 67.5388 13.5816 68.383 14.6579C69.2273 15.7341 69.6771 17.0673 69.6574 18.4351V48.7016C69.6574 49.3075 69.4168 49.8885 68.9884 50.3169C68.56 50.7454 67.9789 50.986 67.3731 50.9861H63.7846Z" fill="#004324"/>
</g>
<g clip-path="url(#clip3)">
<path d="M98.1071 60.777C94.9006 60.9656 92.1414 61.1355 89.4439 58.459C88.9161 57.9428 88.4573 57.3604 88.0791 56.7263C87.8769 56.3928 87.7669 56.0116 87.7602 55.6217C87.7535 55.2318 87.8504 54.847 88.041 54.5068C88.2317 54.1666 88.5092 53.883 88.8453 53.6851C89.1813 53.4872 89.5639 53.3821 89.9539 53.3804H92.8547C93.1722 53.3804 93.4767 53.2543 93.7012 53.0298C93.9257 52.8053 94.0518 52.5008 94.0518 52.1832V18.6352C94.0876 16.5377 93.348 14.5008 91.9749 12.9148C90.6018 11.3288 88.6917 10.3053 86.6107 10.0405C85.4613 9.9264 84.3008 10.0541 83.2039 10.4155C82.1069 10.7768 81.0976 11.3638 80.2411 12.1386C79.3845 12.9134 78.6996 13.8588 78.2304 14.9142C77.7612 15.9696 77.518 17.1115 77.5166 18.2664V52.1832C77.5166 52.5008 77.6427 52.8053 77.8672 53.0298C78.0918 53.2543 78.3963 53.3804 78.7138 53.3804H81.5024C82.3201 53.3855 83.1154 53.6489 83.7745 54.1328C84.4337 54.6168 84.9231 55.2966 85.1729 56.0753C85.6965 57.6228 86.5826 59.0227 87.7572 60.1581C91.2155 63.5938 94.9559 63.3693 98.2504 63.1667C101.455 62.9718 104.216 62.8066 106.914 65.4846C107.748 66.2968 108.399 67.2778 108.823 68.3621C109.248 69.4463 109.435 70.6086 109.374 71.7713C109.377 72.0867 109.505 72.388 109.729 72.6099C109.953 72.8317 110.256 72.9561 110.571 72.956H110.583C110.901 72.9528 111.204 72.8236 111.426 72.5967C111.649 72.3699 111.772 72.064 111.769 71.7464C111.823 70.2721 111.569 68.8026 111.024 67.4319C110.478 66.0611 109.653 64.8192 108.6 63.7855C105.143 60.3514 101.402 60.5759 98.1071 60.777ZM85.7846 50.9861H82.1953C81.5895 50.986 81.0084 50.7454 80.58 50.3169C80.1516 49.8885 79.9109 49.3075 79.9109 48.7016V18.2664C79.9124 17.3908 80.1092 16.5264 80.4871 15.7365C80.8651 14.9466 81.4146 14.251 82.0956 13.7004C82.7765 13.1499 83.5718 12.7583 84.4234 12.5542C85.275 12.3501 86.1614 12.3387 87.0179 12.5207C88.351 12.8273 89.5388 13.5816 90.383 14.6579C91.2273 15.7341 91.6771 17.0673 91.6574 18.4351V48.7016C91.6574 49.3075 91.4168 49.8885 90.9884 50.3169C90.56 50.7454 89.9789 50.986 89.3731 50.9861H85.7846Z" fill="#004324"/>
</g>
<g clip-path="url(#clip4)">
<path d="M120.107 60.777C116.901 60.9656 114.141 61.1355 111.444 58.459C110.916 57.9428 110.457 57.3604 110.079 56.7263C109.877 56.3928 109.767 56.0116 109.76 55.6217C109.753 55.2318 109.85 54.847 110.041 54.5068C110.232 54.1666 110.509 53.883 110.845 53.6851C111.181 53.4872 111.564 53.3821 111.954 53.3804H114.855C115.172 53.3804 115.477 53.2543 115.701 53.0298C115.926 52.8053 116.052 52.5008 116.052 52.1832V18.6352C116.088 16.5377 115.348 14.5008 113.975 12.9148C112.602 11.3288 110.692 10.3053 108.611 10.0405C107.461 9.9264 106.301 10.0541 105.204 10.4155C104.107 10.7768 103.098 11.3638 102.241 12.1386C101.385 12.9134 100.7 13.8588 100.23 14.9142C99.7612 15.9696 99.518 17.1115 99.5166 18.2664V52.1832C99.5166 52.5008 99.6427 52.8053 99.8672 53.0298C100.092 53.2543 100.396 53.3804 100.714 53.3804H103.502C104.32 53.3855 105.115 53.6489 105.775 54.1328C106.434 54.6168 106.923 55.2966 107.173 56.0753C107.697 57.6228 108.583 59.0227 109.757 60.1581C113.215 63.5938 116.956 63.3693 120.25 63.1667C123.455 62.9718 126.216 62.8066 128.914 65.4846C129.748 66.2968 130.399 67.2778 130.823 68.3621C131.248 69.4463 131.435 70.6086 131.374 71.7713C131.377 72.0867 131.505 72.388 131.729 72.6099C131.953 72.8317 132.256 72.9561 132.571 72.956H132.583C132.901 72.9528 133.204 72.8236 133.426 72.5967C133.649 72.3699 133.772 72.064 133.769 71.7464C133.823 70.2721 133.569 68.8026 133.024 67.4319C132.478 66.0611 131.653 64.8192 130.6 63.7855C127.143 60.3514 123.402 60.5759 120.107 60.777ZM107.785 50.9861H104.195C103.589 50.986 103.008 50.7454 102.58 50.3169C102.152 49.8885 101.911 49.3075 101.911 48.7016V18.2664C101.912 17.3908 102.109 16.5264 102.487 15.7365C102.865 14.9466 103.415 14.251 104.096 13.7004C104.777 13.1499 105.572 12.7583 106.423 12.5542C107.275 12.3501 108.161 12.3387 109.018 12.5207C110.351 12.8273 111.539 13.5816 112.383 14.6579C113.227 15.7341 113.677 17.0673 113.657 18.4351V48.7016C113.657 49.3075 113.417 49.8885 112.988 50.3169C112.56 50.7454 111.979 50.986 111.373 50.9861H107.785Z" fill="#004324"/>
</g>
<g clip-path="url(#clip5)">
<path d="M142.107 60.777C138.901 60.9656 136.141 61.1355 133.444 58.459C132.916 57.9428 132.457 57.3604 132.079 56.7263C131.877 56.3928 131.767 56.0116 131.76 55.6217C131.753 55.2318 131.85 54.847 132.041 54.5068C132.232 54.1666 132.509 53.883 132.845 53.6851C133.181 53.4872 133.564 53.3821 133.954 53.3804H136.855C137.172 53.3804 137.477 53.2543 137.701 53.0298C137.926 52.8053 138.052 52.5008 138.052 52.1832V18.6352C138.088 16.5377 137.348 14.5008 135.975 12.9148C134.602 11.3288 132.692 10.3053 130.611 10.0405C129.461 9.9264 128.301 10.0541 127.204 10.4155C126.107 10.7768 125.098 11.3638 124.241 12.1386C123.385 12.9134 122.7 13.8588 122.23 14.9142C121.761 15.9696 121.518 17.1115 121.517 18.2664V52.1832C121.517 52.5008 121.643 52.8053 121.867 53.0298C122.092 53.2543 122.396 53.3804 122.714 53.3804H125.502C126.32 53.3855 127.115 53.6489 127.775 54.1328C128.434 54.6168 128.923 55.2966 129.173 56.0753C129.697 57.6228 130.583 59.0227 131.757 60.1581C135.215 63.5938 138.956 63.3693 142.25 63.1667C145.455 62.9718 148.216 62.8066 150.914 65.4846C151.748 66.2968 152.399 67.2778 152.823 68.3621C153.248 69.4463 153.435 70.6086 153.374 71.7713C153.377 72.0867 153.505 72.388 153.729 72.6099C153.953 72.8317 154.256 72.9561 154.571 72.956H154.583C154.901 72.9528 155.204 72.8236 155.426 72.5967C155.649 72.3699 155.772 72.064 155.769 71.7464C155.823 70.2721 155.569 68.8026 155.024 67.4319C154.478 66.0611 153.653 64.8192 152.6 63.7855C149.143 60.3514 145.402 60.5759 142.107 60.777ZM129.785 50.9861H126.195C125.589 50.986 125.008 50.7454 124.58 50.3169C124.152 49.8885 123.911 49.3075 123.911 48.7016V18.2664C123.912 17.3908 124.109 16.5264 124.487 15.7365C124.865 14.9466 125.415 14.251 126.096 13.7004C126.777 13.1499 127.572 12.7583 128.423 12.5542C129.275 12.3501 130.161 12.3387 131.018 12.5207C132.351 12.8273 133.539 13.5816 134.383 14.6579C135.227 15.7341 135.677 17.0673 135.657 18.4351V48.7016C135.657 49.3075 135.417 49.8885 134.988 50.3169C134.56 50.7454 133.979 50.986 133.373 50.9861H129.785Z" fill="#004324"/>
</g>
<g clip-path="url(#clip6)">
<path d="M157.657 48.7013V18.4348C157.677 17.067 157.227 15.7338 156.383 14.6576C155.539 13.5813 154.351 12.827 153.018 12.5204C152.161 12.3384 151.275 12.3498 150.423 12.5539C149.572 12.758 148.776 13.1496 148.096 13.7001C147.415 14.2506 146.865 14.9462 146.487 15.7362C146.109 16.5261 145.912 17.3904 145.911 18.2661V48.7013C145.911 49.3071 146.152 49.8882 146.58 50.3166C147.008 50.745 147.589 50.9857 148.195 50.9857H155.373C155.979 50.9857 156.56 50.745 156.988 50.3166C157.417 49.8882 157.657 49.3071 157.657 48.7013Z" fill="#F2A900"/>
<path d="M164.107 60.777C160.901 60.9656 158.141 61.1355 155.444 58.459C154.916 57.9428 154.457 57.3604 154.079 56.7263C153.877 56.3928 153.767 56.0116 153.76 55.6217C153.753 55.2318 153.85 54.847 154.041 54.5068C154.232 54.1666 154.509 53.883 154.845 53.6851C155.181 53.4872 155.564 53.3821 155.954 53.3804H158.855C159.172 53.3804 159.477 53.2543 159.701 53.0298C159.926 52.8053 160.052 52.5008 160.052 52.1832V18.6352C160.088 16.5377 159.348 14.5008 157.975 12.9148C156.602 11.3288 154.692 10.3053 152.611 10.0405C151.461 9.9264 150.301 10.0541 149.204 10.4155C148.107 10.7768 147.098 11.3638 146.241 12.1386C145.385 12.9134 144.7 13.8588 144.23 14.9142C143.761 15.9696 143.518 17.1115 143.517 18.2664V52.1832C143.517 52.5008 143.643 52.8053 143.867 53.0298C144.092 53.2543 144.396 53.3804 144.714 53.3804H147.502C148.32 53.3855 149.115 53.6489 149.775 54.1328C150.434 54.6168 150.923 55.2966 151.173 56.0753C151.697 57.6228 152.583 59.0227 153.757 60.1581C157.215 63.5938 160.956 63.3693 164.25 63.1667C167.455 62.9718 170.216 62.8066 172.914 65.4846C173.748 66.2968 174.399 67.2778 174.823 68.3621C175.248 69.4463 175.435 70.6086 175.374 71.7713C175.377 72.0867 175.505 72.388 175.729 72.6099C175.953 72.8317 176.256 72.9561 176.571 72.956H176.583C176.901 72.9528 177.204 72.8236 177.426 72.5967C177.649 72.3699 177.772 72.064 177.769 71.7464C177.823 70.2721 177.569 68.8026 177.024 67.4319C176.478 66.0611 175.653 64.8192 174.6 63.7855C171.143 60.3514 167.402 60.5759 164.107 60.777ZM151.785 50.9861H148.195C147.589 50.986 147.008 50.7454 146.58 50.3169C146.152 49.8885 145.911 49.3075 145.911 48.7016V18.2664C145.912 17.3908 146.109 16.5264 146.487 15.7365C146.865 14.9466 147.415 14.251 148.096 13.7004C148.777 13.1499 149.572 12.7583 150.423 12.5542C151.275 12.3501 152.161 12.3387 153.018 12.5207C154.351 12.8273 155.539 13.5816 156.383 14.6579C157.227 15.7341 157.677 17.0673 157.657 18.4351V48.7016C157.657 49.3075 157.417 49.8885 156.988 50.3169C156.56 50.7454 155.979 50.986 155.373 50.9861H151.785Z" fill="#004324"/>
<path d="M151.5 28L153.665 31.75H149.335L151.5 28Z" fill="#FEFEE5"/>
<circle cx="151.5" cy="33" r="2.5" fill="#FEFEE5"/>
</g>
<g clip-path="url(#clip7)">
<path d="M179.657 48.7013V18.4348C179.677 17.067 179.227 15.7338 178.383 14.6576C177.539 13.5813 176.351 12.827 175.018 12.5204C174.161 12.3384 173.275 12.3498 172.423 12.5539C171.572 12.758 170.776 13.1496 170.096 13.7001C169.415 14.2506 168.865 14.9462 168.487 15.7362C168.109 16.5261 167.912 17.3904 167.911 18.2661V48.7013C167.911 49.3071 168.152 49.8882 168.58 50.3166C169.008 50.745 169.589 50.9857 170.195 50.9857H177.373C177.979 50.9857 178.56 50.745 178.988 50.3166C179.417 49.8882 179.657 49.3071 179.657 48.7013V48.7013Z" fill="#F2A900"/>
<path d="M186.107 60.777C182.901 60.9656 180.141 61.1355 177.444 58.459C176.916 57.9428 176.457 57.3604 176.079 56.7263C175.877 56.3928 175.767 56.0116 175.76 55.6217C175.753 55.2318 175.85 54.847 176.041 54.5068C176.232 54.1666 176.509 53.883 176.845 53.6851C177.181 53.4872 177.564 53.3821 177.954 53.3804H180.855C181.172 53.3804 181.477 53.2543 181.701 53.0298C181.926 52.8053 182.052 52.5008 182.052 52.1832V18.6352C182.088 16.5377 181.348 14.5008 179.975 12.9148C178.602 11.3288 176.692 10.3053 174.611 10.0405C173.461 9.9264 172.301 10.0541 171.204 10.4155C170.107 10.7768 169.098 11.3638 168.241 12.1386C167.385 12.9134 166.7 13.8588 166.23 14.9142C165.761 15.9696 165.518 17.1115 165.517 18.2664V52.1832C165.517 52.5008 165.643 52.8053 165.867 53.0298C166.092 53.2543 166.396 53.3804 166.714 53.3804H169.502C170.32 53.3855 171.115 53.6489 171.775 54.1328C172.434 54.6168 172.923 55.2966 173.173 56.0753C173.697 57.6228 174.583 59.0227 175.757 60.1581C179.215 63.5938 182.956 63.3693 186.25 63.1667C189.455 62.9718 192.216 62.8066 194.914 65.4846C195.748 66.2968 196.399 67.2778 196.823 68.3621C197.248 69.4463 197.435 70.6086 197.374 71.7713C197.377 72.0867 197.505 72.388 197.729 72.6099C197.953 72.8317 198.256 72.9561 198.571 72.956H198.583C198.901 72.9528 199.204 72.8236 199.426 72.5967C199.649 72.3699 199.772 72.064 199.769 71.7464C199.823 70.2721 199.569 68.8026 199.024 67.4319C198.478 66.0611 197.653 64.8192 196.6 63.7855C193.143 60.3514 189.402 60.5759 186.107 60.777ZM173.785 50.9861H170.195C169.589 50.986 169.008 50.7454 168.58 50.3169C168.152 49.8885 167.911 49.3075 167.911 48.7016V18.2664C167.912 17.3908 168.109 16.5264 168.487 15.7365C168.865 14.9466 169.415 14.251 170.096 13.7004C170.777 13.1499 171.572 12.7583 172.423 12.5542C173.275 12.3501 174.161 12.3387 175.018 12.5207C176.351 12.8273 177.539 13.5816 178.383 14.6579C179.227 15.7341 179.677 17.0673 179.657 18.4351V48.7016C179.657 49.3075 179.417 49.8885 178.988 50.3169C178.56 50.7454 177.979 50.986 177.373 50.9861H173.785Z" fill="#004324"/>
<path d="M173.5 28L175.665 31.75H171.335L173.5 28Z" fill="#FEFEE5"/>
<circle cx="173.5" cy="33" r="2.5" fill="#FEFEE5"/>
</g>
<g clip-path="url(#clip8)">
<path d="M201.657 48.7013V18.4348C201.677 17.067 201.227 15.7338 200.383 14.6576C199.539 13.5813 198.351 12.827 197.018 12.5204C196.161 12.3384 195.275 12.3498 194.423 12.5539C193.572 12.758 192.776 13.1496 192.096 13.7001C191.415 14.2506 190.865 14.9462 190.487 15.7362C190.109 16.5261 189.912 17.3904 189.911 18.2661V48.7013C189.911 49.3071 190.152 49.8882 190.58 50.3166C191.008 50.745 191.589 50.9857 192.195 50.9857H199.373C199.979 50.9857 200.56 50.745 200.988 50.3166C201.417 49.8882 201.657 49.3071 201.657 48.7013V48.7013Z" fill="#F2A900"/>
<path d="M208.107 60.777C204.901 60.9656 202.141 61.1355 199.444 58.459C198.916 57.9428 198.457 57.3604 198.079 56.7263C197.877 56.3928 197.767 56.0116 197.76 55.6217C197.753 55.2318 197.85 54.847 198.041 54.5068C198.232 54.1666 198.509 53.883 198.845 53.6851C199.181 53.4872 199.564 53.3821 199.954 53.3804H202.855C203.172 53.3804 203.477 53.2543 203.701 53.0298C203.926 52.8053 204.052 52.5008 204.052 52.1832V18.6352C204.088 16.5377 203.348 14.5008 201.975 12.9148C200.602 11.3288 198.692 10.3053 196.611 10.0405C195.461 9.9264 194.301 10.0541 193.204 10.4155C192.107 10.7768 191.098 11.3638 190.241 12.1386C189.385 12.9134 188.7 13.8588 188.23 14.9142C187.761 15.9696 187.518 17.1115 187.517 18.2664V52.1832C187.517 52.5008 187.643 52.8053 187.867 53.0298C188.092 53.2543 188.396 53.3804 188.714 53.3804H191.502C192.32 53.3855 193.115 53.6489 193.775 54.1328C194.434 54.6168 194.923 55.2966 195.173 56.0753C195.697 57.6228 196.583 59.0227 197.757 60.1581C201.215 63.5938 204.956 63.3693 208.25 63.1667C211.455 62.9718 214.216 62.8066 216.914 65.4846C217.748 66.2968 218.399 67.2778 218.823 68.3621C219.248 69.4463 219.435 70.6086 219.374 71.7713C219.377 72.0867 219.505 72.388 219.729 72.6099C219.953 72.8317 220.256 72.9561 220.571 72.956H220.583C220.901 72.9528 221.204 72.8236 221.426 72.5967C221.649 72.3699 221.772 72.064 221.769 71.7464C221.823 70.2721 221.569 68.8026 221.024 67.4319C220.478 66.0611 219.653 64.8192 218.6 63.7855C215.143 60.3514 211.402 60.5759 208.107 60.777ZM195.785 50.9861H192.195C191.589 50.986 191.008 50.7454 190.58 50.3169C190.152 49.8885 189.911 49.3075 189.911 48.7016V18.2664C189.912 17.3908 190.109 16.5264 190.487 15.7365C190.865 14.9466 191.415 14.251 192.096 13.7004C192.777 13.1499 193.572 12.7583 194.423 12.5542C195.275 12.3501 196.161 12.3387 197.018 12.5207C198.351 12.8273 199.539 13.5816 200.383 14.6579C201.227 15.7341 201.677 17.0673 201.657 18.4351V48.7016C201.657 49.3075 201.417 49.8885 200.988 50.3169C200.56 50.7454 199.979 50.986 199.373 50.9861H195.785Z" fill="#004324"/>
<path d="M195.5 28L197.665 31.75H193.335L195.5 28Z" fill="#FEFEE5"/>
<circle cx="195.5" cy="33" r="2.5" fill="#FEFEE5"/>
</g>
<g clip-path="url(#clip9)">
<path d="M223.657 48.7013V18.4348C223.677 17.067 223.227 15.7338 222.383 14.6576C221.539 13.5813 220.351 12.827 219.018 12.5204C218.161 12.3384 217.275 12.3498 216.423 12.5539C215.572 12.758 214.776 13.1496 214.096 13.7001C213.415 14.2506 212.865 14.9462 212.487 15.7362C212.109 16.5261 211.912 17.3904 211.911 18.2661V48.7013C211.911 49.3071 212.152 49.8882 212.58 50.3166C213.008 50.745 213.589 50.9857 214.195 50.9857H221.373C221.979 50.9857 222.56 50.745 222.988 50.3166C223.417 49.8882 223.657 49.3071 223.657 48.7013V48.7013Z" fill="#F2A900"/>
<path d="M230.107 60.777C226.901 60.9656 224.141 61.1355 221.444 58.459C220.916 57.9428 220.457 57.3604 220.079 56.7263C219.877 56.3928 219.767 56.0116 219.76 55.6217C219.753 55.2318 219.85 54.847 220.041 54.5068C220.232 54.1666 220.509 53.883 220.845 53.6851C221.181 53.4872 221.564 53.3821 221.954 53.3804H224.855C225.172 53.3804 225.477 53.2543 225.701 53.0298C225.926 52.8053 226.052 52.5008 226.052 52.1832V18.6352C226.088 16.5377 225.348 14.5008 223.975 12.9148C222.602 11.3288 220.692 10.3053 218.611 10.0405C217.461 9.9264 216.301 10.0541 215.204 10.4155C214.107 10.7768 213.098 11.3638 212.241 12.1386C211.385 12.9134 210.7 13.8588 210.23 14.9142C209.761 15.9696 209.518 17.1115 209.517 18.2664V52.1832C209.517 52.5008 209.643 52.8053 209.867 53.0298C210.092 53.2543 210.396 53.3804 210.714 53.3804H213.502C214.32 53.3855 215.115 53.6489 215.775 54.1328C216.434 54.6168 216.923 55.2966 217.173 56.0753C217.697 57.6228 218.583 59.0227 219.757 60.1581C223.215 63.5938 226.956 63.3693 230.25 63.1667C233.455 62.9718 236.216 62.8066 238.914 65.4846C239.748 66.2968 240.399 67.2778 240.823 68.3621C241.248 69.4463 241.435 70.6086 241.374 71.7713C241.377 72.0867 241.505 72.388 241.729 72.6099C241.953 72.8317 242.256 72.9561 242.571 72.956H242.583C242.901 72.9528 243.204 72.8236 243.426 72.5967C243.649 72.3699 243.772 72.064 243.769 71.7464C243.823 70.2721 243.569 68.8026 243.024 67.4319C242.478 66.0611 241.653 64.8192 240.6 63.7855C237.143 60.3514 233.402 60.5759 230.107 60.777ZM217.785 50.9861H214.195C213.589 50.986 213.008 50.7454 212.58 50.3169C212.152 49.8885 211.911 49.3075 211.911 48.7016V18.2664C211.912 17.3908 212.109 16.5264 212.487 15.7365C212.865 14.9466 213.415 14.251 214.096 13.7004C214.777 13.1499 215.572 12.7583 216.423 12.5542C217.275 12.3501 218.161 12.3387 219.018 12.5207C220.351 12.8273 221.539 13.5816 222.383 14.6579C223.227 15.7341 223.677 17.0673 223.657 18.4351V48.7016C223.657 49.3075 223.417 49.8885 222.988 50.3169C222.56 50.7454 221.979 50.986 221.373 50.9861H217.785Z" fill="#004324"/>
<path d="M217.5 28L219.665 31.75H215.335L217.5 28Z" fill="#FEFEE5"/>
<circle cx="217.5" cy="33" r="2.5" fill="#FEFEE5"/>
</g>
<g clip-path="url(#clip10)">
<path d="M245.657 48.7013V18.4348C245.677 17.067 245.227 15.7338 244.383 14.6576C243.539 13.5813 242.351 12.827 241.018 12.5204C240.161 12.3384 239.275 12.3498 238.423 12.5539C237.572 12.758 236.776 13.1496 236.096 13.7001C235.415 14.2506 234.865 14.9462 234.487 15.7362C234.109 16.5261 233.912 17.3904 233.911 18.2661V48.7013C233.911 49.3071 234.152 49.8882 234.58 50.3166C235.008 50.745 235.589 50.9857 236.195 50.9857H243.373C243.979 50.9857 244.56 50.745 244.988 50.3166C245.417 49.8882 245.657 49.3071 245.657 48.7013Z" fill="#F2A900"/>
<path d="M252.107 60.777C248.901 60.9656 246.141 61.1355 243.444 58.459C242.916 57.9428 242.457 57.3604 242.079 56.7263C241.877 56.3928 241.767 56.0116 241.76 55.6217C241.753 55.2318 241.85 54.847 242.041 54.5068C242.232 54.1666 242.509 53.883 242.845 53.6851C243.181 53.4872 243.564 53.3821 243.954 53.3804H246.855C247.172 53.3804 247.477 53.2543 247.701 53.0298C247.926 52.8053 248.052 52.5008 248.052 52.1832V18.6352C248.088 16.5377 247.348 14.5008 245.975 12.9148C244.602 11.3288 242.692 10.3053 240.611 10.0405C239.461 9.9264 238.301 10.0541 237.204 10.4155C236.107 10.7768 235.098 11.3638 234.241 12.1386C233.385 12.9134 232.7 13.8588 232.23 14.9142C231.761 15.9696 231.518 17.1115 231.517 18.2664V52.1832C231.517 52.5008 231.643 52.8053 231.867 53.0298C232.092 53.2543 232.396 53.3804 232.714 53.3804H235.502C236.32 53.3855 237.115 53.6489 237.775 54.1328C238.434 54.6168 238.923 55.2966 239.173 56.0753C239.697 57.6228 240.583 59.0227 241.757 60.1581C245.215 63.5938 248.956 63.3693 252.25 63.1667C255.455 62.9718 258.216 62.8066 260.914 65.4846C261.748 66.2968 262.399 67.2778 262.823 68.3621C263.248 69.4463 263.435 70.6086 263.374 71.7713C263.377 72.0867 263.505 72.388 263.729 72.6099C263.953 72.8317 264.256 72.9561 264.571 72.956H264.583C264.901 72.9528 265.204 72.8236 265.426 72.5967C265.649 72.3699 265.772 72.064 265.769 71.7464C265.823 70.2721 265.569 68.8026 265.024 67.4319C264.478 66.0611 263.653 64.8192 262.6 63.7855C259.143 60.3514 255.402 60.5759 252.107 60.777ZM239.785 50.9861H236.195C235.589 50.986 235.008 50.7454 234.58 50.3169C234.152 49.8885 233.911 49.3075 233.911 48.7016V18.2664C233.912 17.3908 234.109 16.5264 234.487 15.7365C234.865 14.9466 235.415 14.251 236.096 13.7004C236.777 13.1499 237.572 12.7583 238.423 12.5542C239.275 12.3501 240.161 12.3387 241.018 12.5207C242.351 12.8273 243.539 13.5816 244.383 14.6579C245.227 15.7341 245.677 17.0673 245.657 18.4351V48.7016C245.657 49.3075 245.417 49.8885 244.988 50.3169C244.56 50.7454 243.979 50.986 243.373 50.9861H239.785Z" fill="#004324"/>
<path d="M239.5 28L241.665 31.75H237.335L239.5 28Z" fill="#FEFEE5"/>
<circle cx="239.5" cy="33" r="2.5" fill="#FEFEE5"/>
</g>
<g clip-path="url(#clip11)">
<path d="M267.657 48.7013V18.4348C267.677 17.067 267.227 15.7338 266.383 14.6576C265.539 13.5813 264.351 12.827 263.018 12.5204C262.161 12.3384 261.275 12.3498 260.423 12.5539C259.572 12.758 258.776 13.1496 258.096 13.7001C257.415 14.2506 256.865 14.9462 256.487 15.7362C256.109 16.5261 255.912 17.3904 255.911 18.2661V48.7013C255.911 49.3071 256.152 49.8882 256.58 50.3166C257.008 50.745 257.589 50.9857 258.195 50.9857H265.373C265.979 50.9857 266.56 50.745 266.988 50.3166C267.417 49.8882 267.657 49.3071 267.657 48.7013V48.7013Z" fill="#F2A900"/>
<path d="M274.107 60.777C270.901 60.9656 268.141 61.1355 265.444 58.459C264.916 57.9428 264.457 57.3604 264.079 56.7263C263.877 56.3928 263.767 56.0116 263.76 55.6217C263.753 55.2318 263.85 54.847 264.041 54.5068C264.232 54.1666 264.509 53.883 264.845 53.6851C265.181 53.4872 265.564 53.3821 265.954 53.3804H268.855C269.172 53.3804 269.477 53.2543 269.701 53.0298C269.926 52.8053 270.052 52.5008 270.052 52.1832V18.6352C270.088 16.5377 269.348 14.5008 267.975 12.9148C266.602 11.3288 264.692 10.3053 262.611 10.0405C261.461 9.9264 260.301 10.0541 259.204 10.4155C258.107 10.7768 257.098 11.3638 256.241 12.1386C255.385 12.9134 254.7 13.8588 254.23 14.9142C253.761 15.9696 253.518 17.1115 253.517 18.2664V52.1832C253.517 52.5008 253.643 52.8053 253.867 53.0298C254.092 53.2543 254.396 53.3804 254.714 53.3804H257.502C258.32 53.3855 259.115 53.6489 259.775 54.1328C260.434 54.6168 260.923 55.2966 261.173 56.0753C261.697 57.6228 262.583 59.0227 263.757 60.1581C267.215 63.5938 270.956 63.3693 274.25 63.1667C277.455 62.9718 280.216 62.8066 282.914 65.4846C283.748 66.2968 284.399 67.2778 284.823 68.3621C285.248 69.4463 285.435 70.6086 285.374 71.7713C285.377 72.0867 285.505 72.388 285.729 72.6099C285.953 72.8317 286.256 72.9561 286.571 72.956H286.583C286.901 72.9528 287.204 72.8236 287.426 72.5967C287.649 72.3699 287.772 72.064 287.769 71.7464C287.823 70.2721 287.569 68.8026 287.024 67.4319C286.478 66.0611 285.653 64.8192 284.6 63.7855C281.143 60.3514 277.402 60.5759 274.107 60.777ZM261.785 50.9861H258.195C257.589 50.986 257.008 50.7454 256.58 50.3169C256.152 49.8885 255.911 49.3075 255.911 48.7016V18.2664C255.912 17.3908 256.109 16.5264 256.487 15.7365C256.865 14.9466 257.415 14.251 258.096 13.7004C258.777 13.1499 259.572 12.7583 260.423 12.5542C261.275 12.3501 262.161 12.3387 263.018 12.5207C264.351 12.8273 265.539 13.5816 266.383 14.6579C267.227 15.7341 267.677 17.0673 267.657 18.4351V48.7016C267.657 49.3075 267.417 49.8885 266.988 50.3169C266.56 50.7454 265.979 50.986 265.373 50.9861H261.785Z" fill="#004324"/>
<path d="M261.5 28L263.665 31.75H259.335L261.5 28Z" fill="#FEFEE5"/>
<circle cx="261.5" cy="33" r="2.5" fill="#FEFEE5"/>
</g>
<defs>
<clipPath id="clip0">
<rect width="50" height="62.956" fill="white" transform="translate(0 10)"/>
</clipPath>
<clipPath id="clip1">
<rect width="50" height="62.956" fill="white" transform="translate(22 10)"/>
</clipPath>
<clipPath id="clip2">
<rect width="50" height="62.956" fill="white" transform="translate(44 10)"/>
</clipPath>
<clipPath id="clip3">
<rect width="50" height="62.956" fill="white" transform="translate(66 10)"/>
</clipPath>
<clipPath id="clip4">
<rect width="50" height="62.956" fill="white" transform="translate(88 10)"/>
</clipPath>
<clipPath id="clip5">
<rect width="50" height="62.956" fill="white" transform="translate(110 10)"/>
</clipPath>
<clipPath id="clip6">
<rect width="50" height="62.956" fill="white" transform="translate(132 10)"/>
</clipPath>
<clipPath id="clip7">
<rect width="50" height="62.956" fill="white" transform="translate(154 10)"/>
</clipPath>
<clipPath id="clip8">
<rect width="50" height="62.956" fill="white" transform="translate(176 10)"/>
</clipPath>
<clipPath id="clip9">
<rect width="50" height="62.956" fill="white" transform="translate(198 10)"/>
</clipPath>
<clipPath id="clip10">
<rect width="50" height="62.956" fill="white" transform="translate(220 10)"/>
</clipPath>
<clipPath id="clip11">
<rect width="50" height="62.956" fill="white" transform="translate(242 10)"/>
</clipPath>
</defs>
</svg>
