<svg width="15" height="14" viewBox="0 0 15 14" fill="none" xmlns="http://www.w3.org/2000/svg">
<path d="M14.28 6.76C14.28 9.50667 13.5067 11.42 11.96 12.5C10.5333 13.5 8.57333 14 6.08 14H0.42V13.62H1.74V0.379999H0.42V-9.53674e-07H6.6C9.16 -9.53674e-07 11.08 0.526666 12.36 1.58C13.64 2.62 14.28 4.34667 14.28 6.76ZM5.64 13.62H6.4C7.74667 13.62 8.70667 13.1467 9.28 12.2C9.86667 11.24 10.16 9.64 10.16 7.4V6.24C10.16 3.24 9.58667 1.43333 8.44 0.819999C7.89333 0.526666 7.12 0.379999 6.12 0.379999H5.64V13.62Z" fill="#F2A900"/>
</svg>
