<svg width="1112" height="286" viewBox="0 0 1112 286" fill="none" xmlns="http://www.w3.org/2000/svg">
<rect width="1112" height="286" fill="#FEFEE5"/>
<g clip-path="url(#clip0)">
<path d="M119.509 151.948V55.7963C119.572 51.4511 118.143 47.2159 115.46 43.7967C112.778 40.3776 109.005 37.9813 104.77 37.0074C102.049 36.4291 99.233 36.4654 96.5277 37.1137C93.8224 37.7621 91.296 39.0061 89.1326 40.7551C86.9693 42.5041 85.2236 44.7139 84.023 47.2234C82.8223 49.7328 82.197 52.4786 82.1925 55.2605V151.948C82.1925 153.872 82.957 155.718 84.318 157.079C85.6789 158.44 87.5248 159.205 89.4495 159.205H112.252C114.177 159.205 116.023 158.44 117.384 157.079C118.744 155.718 119.509 153.872 119.509 151.948V151.948Z" fill="#EBA825"/>
<path d="M139.998 190.31C129.812 190.909 121.047 191.449 112.477 182.946C110.8 181.306 109.343 179.456 108.141 177.441C107.499 176.382 107.149 175.171 107.128 173.932C107.107 172.693 107.415 171.471 108.02 170.39C108.626 169.309 109.508 168.409 110.575 167.78C111.643 167.151 112.858 166.817 114.097 166.812H123.312C124.321 166.812 125.288 166.411 126.002 165.698C126.715 164.985 127.116 164.017 127.116 163.009V56.4325C127.229 49.7691 124.88 43.2981 120.518 38.2597C116.155 33.2213 110.087 29.9699 103.476 29.1285C99.8251 28.7662 96.1384 29.172 92.6534 30.32C89.1685 31.4679 85.9624 33.3325 83.2412 35.7938C80.5201 38.2552 78.3443 41.2588 76.8537 44.6116C75.363 47.9643 74.5906 51.5919 74.5861 55.261V163.009C74.5861 164.017 74.9868 164.985 75.7 165.698C76.4132 166.411 77.3806 166.812 78.3893 166.812H87.2482C89.846 166.828 92.3723 167.665 94.4664 169.202C96.5605 170.74 98.1153 172.899 98.9089 175.373C100.572 180.289 103.387 184.736 107.119 188.343C118.105 199.258 129.988 198.545 140.454 197.901C150.633 197.282 159.405 196.757 167.975 205.265C170.625 207.845 172.694 210.962 174.042 214.406C175.39 217.85 175.986 221.543 175.792 225.237C175.802 226.238 176.207 227.196 176.919 227.9C177.632 228.605 178.593 229 179.595 229H179.632C180.641 228.99 181.605 228.579 182.311 227.859C183.017 227.138 183.408 226.166 183.398 225.157C183.571 220.474 182.765 215.806 181.032 211.451C179.299 207.096 176.677 203.151 173.333 199.867C162.349 188.958 150.467 189.671 139.998 190.31ZM100.852 159.205H89.4495C87.5248 159.205 85.6789 158.441 84.318 157.08C82.957 155.719 82.1924 153.873 82.1925 151.948V55.261C82.1969 52.4791 82.8223 49.7333 84.0229 47.2238C85.2236 44.7144 86.9693 42.5045 89.1326 40.7556C91.296 39.0066 93.8224 37.7625 96.5277 37.1142C99.233 36.4658 102.049 36.4295 104.77 37.0079C109.005 37.9818 112.778 40.3781 115.46 43.7972C118.143 47.2164 119.572 51.4516 119.509 55.7968V151.948C119.509 153.873 118.744 155.719 117.384 157.08C116.023 158.441 114.177 159.205 112.252 159.205H100.852Z" fill="#0A2240"/>
<path d="M71.2634 199.791H69.4896C68.9309 199.791 68.3777 199.68 67.8615 199.466C67.3454 199.252 66.8764 198.937 66.4813 198.541C66.0863 198.145 65.7729 197.675 65.5591 197.157C65.3453 196.64 65.2353 196.085 65.2353 195.525V193.747C65.2353 192.753 64.8416 191.8 64.1409 191.097C63.4401 190.395 62.4897 190 61.4987 190C60.5076 190 59.5572 190.395 58.8564 191.097C58.1557 191.8 57.762 192.753 57.762 193.747V195.525C57.762 196.085 57.652 196.64 57.4382 197.157C57.2244 197.675 56.911 198.145 56.516 198.541C56.1209 198.937 55.6519 199.251 55.1357 199.466C54.6196 199.68 54.0663 199.79 53.5077 199.79H51.7365C50.7455 199.79 49.7951 200.185 49.0944 200.888C48.3937 201.59 48 202.543 48 203.537C48 204.53 48.3937 205.483 49.0944 206.186C49.7951 206.889 50.7455 207.283 51.7365 207.283H53.5078C54.6361 207.283 55.7182 207.733 56.5161 208.533C57.3139 209.333 57.7621 210.418 57.7622 211.549V213.327C57.7622 214.321 58.1558 215.274 58.8566 215.977C59.5574 216.679 60.5078 217.074 61.4988 217.074C62.4898 217.074 63.4403 216.679 64.141 215.977C64.8418 215.274 65.2355 214.321 65.2355 213.327V211.549C65.2355 210.989 65.3455 210.434 65.5593 209.917C65.7731 209.399 66.0865 208.929 66.4815 208.533C66.8766 208.137 67.3456 207.823 67.8617 207.608C68.3779 207.394 68.9311 207.283 69.4898 207.283H71.2635C72.2545 207.283 73.2049 206.889 73.9056 206.186C74.6063 205.484 75 204.531 75 203.537C75 202.543 74.6063 201.591 73.9056 200.888C73.2049 200.185 72.2545 199.791 71.2635 199.791H71.2634Z" fill="#0A2240"/>
</g>
<g clip-path="url(#clip1)">
<path d="M199.509 151.948V55.7963C199.572 51.4511 198.143 47.2159 195.46 43.7967C192.778 40.3776 189.005 37.9813 184.77 37.0074C182.049 36.4291 179.233 36.4654 176.528 37.1137C173.822 37.7621 171.296 39.0061 169.133 40.7551C166.969 42.5041 165.224 44.7139 164.023 47.2234C162.822 49.7328 162.197 52.4786 162.193 55.2605V151.948C162.192 153.872 162.957 155.718 164.318 157.079C165.679 158.44 167.525 159.205 169.45 159.205H192.252C194.177 159.205 196.023 158.44 197.384 157.079C198.744 155.718 199.509 153.872 199.509 151.948V151.948Z" fill="#EBA825"/>
<path d="M219.998 190.31C209.812 190.909 201.047 191.449 192.477 182.946C190.8 181.306 189.343 179.456 188.141 177.441C187.499 176.382 187.149 175.171 187.128 173.932C187.107 172.693 187.415 171.471 188.02 170.39C188.626 169.309 189.508 168.409 190.575 167.78C191.643 167.151 192.858 166.817 194.097 166.812H203.312C204.321 166.812 205.288 166.411 206.002 165.698C206.715 164.985 207.116 164.017 207.116 163.009V56.4325C207.229 49.7691 204.88 43.2981 200.518 38.2597C196.155 33.2213 190.087 29.9699 183.476 29.1285C179.825 28.7662 176.138 29.172 172.654 30.32C169.169 31.4679 165.962 33.3325 163.241 35.7938C160.52 38.2552 158.344 41.2588 156.854 44.6116C155.363 47.9643 154.591 51.5919 154.586 55.261V163.009C154.586 164.017 154.987 164.985 155.7 165.698C156.413 166.411 157.381 166.812 158.389 166.812H167.248C169.846 166.828 172.372 167.665 174.466 169.202C176.561 170.74 178.115 172.899 178.909 175.373C180.572 180.289 183.387 184.736 187.119 188.343C198.105 199.258 209.988 198.545 220.454 197.901C230.633 197.282 239.405 196.757 247.975 205.265C250.625 207.845 252.694 210.962 254.042 214.406C255.39 217.85 255.987 221.543 255.792 225.237C255.802 226.238 256.207 227.196 256.92 227.9C257.632 228.605 258.593 229 259.595 229H259.632C260.641 228.99 261.605 228.579 262.311 227.859C263.017 227.138 263.408 226.166 263.398 225.157C263.571 220.474 262.765 215.806 261.032 211.451C259.299 207.096 256.677 203.151 253.333 199.867C242.349 188.958 230.467 189.671 219.998 190.31ZM180.852 159.205H169.45C167.525 159.205 165.679 158.441 164.318 157.08C162.957 155.719 162.193 153.873 162.193 151.948V55.261C162.197 52.4791 162.822 49.7333 164.023 47.2238C165.224 44.7144 166.969 42.5045 169.133 40.7556C171.296 39.0066 173.822 37.7625 176.528 37.1142C179.233 36.4658 182.049 36.4295 184.77 37.0079C189.005 37.9818 192.778 40.3781 195.461 43.7972C198.143 47.2164 199.572 51.4516 199.509 55.7968V151.948C199.509 153.873 198.745 155.719 197.384 157.08C196.023 158.441 194.177 159.205 192.252 159.205H180.852Z" fill="#0A2240"/>
</g>
<g clip-path="url(#clip2)">
<path d="M279.509 151.948V55.7963C279.572 51.4511 278.143 47.2159 275.46 43.7967C272.778 40.3776 269.005 37.9813 264.77 37.0074C262.049 36.4291 259.233 36.4654 256.528 37.1137C253.822 37.7621 251.296 39.0061 249.133 40.7551C246.969 42.5041 245.224 44.7139 244.023 47.2234C242.822 49.7328 242.197 52.4786 242.193 55.2605V151.948C242.192 153.872 242.957 155.718 244.318 157.079C245.679 158.44 247.525 159.205 249.45 159.205H272.252C274.177 159.205 276.023 158.44 277.384 157.079C278.744 155.718 279.509 153.872 279.509 151.948V151.948Z" fill="#EBA825"/>
<path d="M299.998 190.31C289.812 190.909 281.047 191.449 272.477 182.946C270.8 181.306 269.343 179.456 268.141 177.441C267.499 176.382 267.149 175.171 267.128 173.932C267.107 172.693 267.415 171.471 268.02 170.39C268.626 169.309 269.508 168.409 270.575 167.78C271.643 167.151 272.858 166.817 274.097 166.812H283.312C284.321 166.812 285.288 166.411 286.002 165.698C286.715 164.985 287.116 164.017 287.116 163.009V56.4325C287.229 49.7691 284.88 43.2981 280.518 38.2597C276.155 33.2213 270.087 29.9699 263.476 29.1285C259.825 28.7662 256.138 29.172 252.654 30.32C249.169 31.4679 245.962 33.3325 243.241 35.7938C240.52 38.2552 238.344 41.2588 236.854 44.6116C235.363 47.9643 234.591 51.5919 234.586 55.261V163.009C234.586 164.017 234.987 164.985 235.7 165.698C236.413 166.411 237.381 166.812 238.389 166.812H247.248C249.846 166.828 252.372 167.665 254.466 169.202C256.561 170.74 258.115 172.899 258.909 175.373C260.572 180.289 263.387 184.736 267.119 188.343C278.105 199.258 289.988 198.545 300.454 197.901C310.633 197.282 319.405 196.757 327.975 205.265C330.625 207.845 332.694 210.962 334.042 214.406C335.39 217.85 335.987 221.543 335.792 225.237C335.802 226.238 336.207 227.196 336.92 227.9C337.632 228.605 338.593 229 339.595 229H339.632C340.641 228.99 341.605 228.579 342.311 227.859C343.017 227.138 343.408 226.166 343.398 225.157C343.571 220.474 342.765 215.806 341.032 211.451C339.299 207.096 336.677 203.151 333.333 199.867C322.349 188.958 310.467 189.671 299.998 190.31ZM260.852 159.205H249.45C247.525 159.205 245.679 158.441 244.318 157.08C242.957 155.719 242.193 153.873 242.193 151.948V55.261C242.197 52.4791 242.822 49.7333 244.023 47.2238C245.224 44.7144 246.969 42.5045 249.133 40.7556C251.296 39.0066 253.822 37.7625 256.528 37.1142C259.233 36.4658 262.049 36.4295 264.77 37.0079C269.005 37.9818 272.778 40.3781 275.461 43.7972C278.143 47.2164 279.572 51.4516 279.509 55.7968V151.948C279.509 153.873 278.745 155.719 277.384 157.08C276.023 158.441 274.177 159.205 272.252 159.205H260.852Z" fill="#0A2240"/>
</g>
<g clip-path="url(#clip3)">
<path d="M359.509 151.948V55.7963C359.572 51.4511 358.143 47.2159 355.46 43.7967C352.778 40.3776 349.005 37.9813 344.77 37.0074C342.049 36.4291 339.233 36.4654 336.528 37.1137C333.822 37.7621 331.296 39.0061 329.133 40.7551C326.969 42.5041 325.224 44.7139 324.023 47.2234C322.822 49.7328 322.197 52.4786 322.193 55.2605V151.948C322.192 153.872 322.957 155.718 324.318 157.079C325.679 158.44 327.525 159.205 329.45 159.205H352.252C354.177 159.205 356.023 158.44 357.384 157.079C358.744 155.718 359.509 153.872 359.509 151.948V151.948Z" fill="#EBA825"/>
<path d="M379.998 190.31C369.812 190.909 361.047 191.449 352.477 182.946C350.8 181.306 349.343 179.456 348.141 177.441C347.499 176.382 347.149 175.171 347.128 173.932C347.107 172.693 347.415 171.471 348.02 170.39C348.626 169.309 349.508 168.409 350.575 167.78C351.643 167.151 352.858 166.817 354.097 166.812H363.312C364.321 166.812 365.288 166.411 366.002 165.698C366.715 164.985 367.116 164.017 367.116 163.009V56.4325C367.229 49.7691 364.88 43.2981 360.518 38.2597C356.155 33.2213 350.087 29.9699 343.476 29.1285C339.825 28.7662 336.138 29.172 332.654 30.32C329.169 31.4679 325.962 33.3325 323.241 35.7938C320.52 38.2552 318.344 41.2588 316.854 44.6116C315.363 47.9643 314.591 51.5919 314.586 55.261V163.009C314.586 164.017 314.987 164.985 315.7 165.698C316.413 166.411 317.381 166.812 318.389 166.812H327.248C329.846 166.828 332.372 167.665 334.466 169.202C336.561 170.74 338.115 172.899 338.909 175.373C340.572 180.289 343.387 184.736 347.119 188.343C358.105 199.258 369.988 198.545 380.454 197.901C390.633 197.282 399.405 196.757 407.975 205.265C410.625 207.845 412.694 210.962 414.042 214.406C415.39 217.85 415.987 221.543 415.792 225.237C415.802 226.238 416.207 227.196 416.92 227.9C417.632 228.605 418.593 229 419.595 229H419.632C420.641 228.99 421.605 228.579 422.311 227.859C423.017 227.138 423.408 226.166 423.398 225.157C423.571 220.474 422.765 215.806 421.032 211.451C419.299 207.096 416.677 203.151 413.333 199.867C402.349 188.958 390.467 189.671 379.998 190.31ZM340.852 159.205H329.45C327.525 159.205 325.679 158.441 324.318 157.08C322.957 155.719 322.193 153.873 322.193 151.948V55.261C322.197 52.4791 322.822 49.7333 324.023 47.2238C325.224 44.7144 326.969 42.5045 329.133 40.7556C331.296 39.0066 333.822 37.7625 336.528 37.1142C339.233 36.4658 342.049 36.4295 344.77 37.0079C349.005 37.9818 352.778 40.3781 355.461 43.7972C358.143 47.2164 359.572 51.4516 359.509 55.7968V151.948C359.509 153.873 358.745 155.719 357.384 157.08C356.023 158.441 354.177 159.205 352.252 159.205H340.852Z" fill="#0A2240"/>
</g>
<g clip-path="url(#clip4)">
<path d="M439.509 151.948V55.7963C439.572 51.4511 438.143 47.2159 435.46 43.7967C432.778 40.3776 429.005 37.9813 424.77 37.0074C422.049 36.4291 419.233 36.4654 416.528 37.1137C413.822 37.7621 411.296 39.0061 409.133 40.7551C406.969 42.5041 405.224 44.7139 404.023 47.2234C402.822 49.7328 402.197 52.4786 402.193 55.2605V151.948C402.192 153.872 402.957 155.718 404.318 157.079C405.679 158.44 407.525 159.205 409.45 159.205H432.252C434.177 159.205 436.023 158.44 437.384 157.079C438.744 155.718 439.509 153.872 439.509 151.948V151.948Z" fill="#EBA825"/>
<path d="M459.998 190.31C449.812 190.909 441.047 191.449 432.477 182.946C430.8 181.306 429.343 179.456 428.141 177.441C427.499 176.382 427.149 175.171 427.128 173.932C427.107 172.693 427.415 171.471 428.02 170.39C428.626 169.309 429.508 168.409 430.575 167.78C431.643 167.151 432.858 166.817 434.097 166.812H443.312C444.321 166.812 445.288 166.411 446.002 165.698C446.715 164.985 447.116 164.017 447.116 163.009V56.4325C447.229 49.7691 444.88 43.2981 440.518 38.2597C436.155 33.2213 430.087 29.9699 423.476 29.1285C419.825 28.7662 416.138 29.172 412.654 30.32C409.169 31.4679 405.962 33.3325 403.241 35.7938C400.52 38.2552 398.344 41.2588 396.854 44.6116C395.363 47.9643 394.591 51.5919 394.586 55.261V163.009C394.586 164.017 394.987 164.985 395.7 165.698C396.413 166.411 397.381 166.812 398.389 166.812H407.248C409.846 166.828 412.372 167.665 414.466 169.202C416.561 170.74 418.115 172.899 418.909 175.373C420.572 180.289 423.387 184.736 427.119 188.343C438.105 199.258 449.988 198.545 460.454 197.901C470.633 197.282 479.405 196.757 487.975 205.265C490.625 207.845 492.694 210.962 494.042 214.406C495.39 217.85 495.987 221.543 495.792 225.237C495.802 226.238 496.207 227.196 496.92 227.9C497.632 228.605 498.593 229 499.595 229H499.632C500.641 228.99 501.605 228.579 502.311 227.859C503.017 227.138 503.408 226.166 503.398 225.157C503.571 220.474 502.765 215.806 501.032 211.451C499.299 207.096 496.677 203.151 493.333 199.867C482.349 188.958 470.467 189.671 459.998 190.31ZM420.852 159.205H409.45C407.525 159.205 405.679 158.441 404.318 157.08C402.957 155.719 402.193 153.873 402.193 151.948V55.261C402.197 52.4791 402.822 49.7333 404.023 47.2238C405.224 44.7144 406.969 42.5045 409.133 40.7556C411.296 39.0066 413.822 37.7625 416.528 37.1142C419.233 36.4658 422.049 36.4295 424.77 37.0079C429.005 37.9818 432.778 40.3781 435.461 43.7972C438.143 47.2164 439.572 51.4516 439.509 55.7968V151.948C439.509 153.873 438.745 155.719 437.384 157.08C436.023 158.441 434.177 159.205 432.252 159.205H420.852Z" fill="#0A2240"/>
</g>
<g clip-path="url(#clip5)">
<path d="M519.509 151.948V55.7963C519.572 51.4511 518.143 47.2159 515.46 43.7967C512.778 40.3776 509.005 37.9813 504.77 37.0074C502.049 36.4291 499.233 36.4654 496.528 37.1137C493.822 37.7621 491.296 39.0061 489.133 40.7551C486.969 42.5041 485.224 44.7139 484.023 47.2234C482.822 49.7328 482.197 52.4786 482.193 55.2605V151.948C482.192 153.872 482.957 155.718 484.318 157.079C485.679 158.44 487.525 159.205 489.45 159.205H512.252C514.177 159.205 516.023 158.44 517.384 157.079C518.744 155.718 519.509 153.872 519.509 151.948V151.948Z" fill="#EBA825"/>
<path d="M539.998 190.31C529.812 190.909 521.047 191.449 512.477 182.946C510.8 181.306 509.343 179.456 508.141 177.441C507.499 176.382 507.149 175.171 507.128 173.932C507.107 172.693 507.415 171.471 508.02 170.39C508.626 169.309 509.508 168.409 510.575 167.78C511.643 167.151 512.858 166.817 514.097 166.812H523.312C524.321 166.812 525.288 166.411 526.002 165.698C526.715 164.985 527.116 164.017 527.116 163.009V56.4325C527.229 49.7691 524.88 43.2981 520.518 38.2597C516.155 33.2213 510.087 29.9699 503.476 29.1285C499.825 28.7662 496.138 29.172 492.654 30.32C489.169 31.4679 485.962 33.3325 483.241 35.7938C480.52 38.2552 478.344 41.2588 476.854 44.6116C475.363 47.9643 474.591 51.5919 474.586 55.261V163.009C474.586 164.017 474.987 164.985 475.7 165.698C476.413 166.411 477.381 166.812 478.389 166.812H487.248C489.846 166.828 492.372 167.665 494.466 169.202C496.561 170.74 498.115 172.899 498.909 175.373C500.572 180.289 503.387 184.736 507.119 188.343C518.105 199.258 529.988 198.545 540.454 197.901C550.633 197.282 559.405 196.757 567.975 205.265C570.625 207.845 572.694 210.962 574.042 214.406C575.39 217.85 575.987 221.543 575.792 225.237C575.802 226.238 576.207 227.196 576.92 227.9C577.632 228.605 578.593 229 579.595 229H579.632C580.641 228.99 581.605 228.579 582.311 227.859C583.017 227.138 583.408 226.166 583.398 225.157C583.571 220.474 582.765 215.806 581.032 211.451C579.299 207.096 576.677 203.151 573.333 199.867C562.349 188.958 550.467 189.671 539.998 190.31ZM500.852 159.205H489.45C487.525 159.205 485.679 158.441 484.318 157.08C482.957 155.719 482.193 153.873 482.193 151.948V55.261C482.197 52.4791 482.822 49.7333 484.023 47.2238C485.224 44.7144 486.969 42.5045 489.133 40.7556C491.296 39.0066 493.822 37.7625 496.528 37.1142C499.233 36.4658 502.049 36.4295 504.77 37.0079C509.005 37.9818 512.778 40.3781 515.461 43.7972C518.143 47.2164 519.572 51.4516 519.509 55.7968V151.948C519.509 153.873 518.745 155.719 517.384 157.08C516.023 158.441 514.177 159.205 512.252 159.205H500.852Z" fill="#0A2240"/>
</g>
<g clip-path="url(#clip6)">
<path d="M601.509 151.948V55.7963C601.572 51.4511 600.143 47.2159 597.46 43.7967C594.778 40.3776 591.005 37.9813 586.77 37.0074C584.049 36.4291 581.233 36.4654 578.528 37.1137C575.822 37.7621 573.296 39.0061 571.133 40.7551C568.969 42.5041 567.224 44.7139 566.023 47.2234C564.822 49.7328 564.197 52.4786 564.193 55.2605V151.948C564.192 153.872 564.957 155.718 566.318 157.079C567.679 158.44 569.525 159.205 571.45 159.205H594.252C596.177 159.205 598.023 158.44 599.384 157.079C600.744 155.718 601.509 153.872 601.509 151.948V151.948Z" fill="#EBA825"/>
<path d="M621.998 190.31C611.812 190.909 603.047 191.449 594.477 182.946C592.8 181.306 591.343 179.456 590.141 177.441C589.499 176.382 589.149 175.171 589.128 173.932C589.107 172.693 589.415 171.471 590.02 170.39C590.626 169.309 591.508 168.409 592.575 167.78C593.643 167.151 594.858 166.817 596.097 166.812H605.312C606.321 166.812 607.288 166.411 608.002 165.698C608.715 164.985 609.116 164.017 609.116 163.009V56.4325C609.229 49.7691 606.88 43.2981 602.518 38.2597C598.155 33.2213 592.087 29.9699 585.476 29.1285C581.825 28.7662 578.138 29.172 574.654 30.32C571.169 31.4679 567.962 33.3325 565.241 35.7938C562.52 38.2552 560.344 41.2588 558.854 44.6116C557.363 47.9643 556.591 51.5919 556.586 55.261V163.009C556.586 164.017 556.987 164.985 557.7 165.698C558.413 166.411 559.381 166.812 560.389 166.812H569.248C571.846 166.828 574.372 167.665 576.466 169.202C578.561 170.74 580.115 172.899 580.909 175.373C582.572 180.289 585.387 184.736 589.119 188.343C600.105 199.258 611.988 198.545 622.454 197.901C632.633 197.282 641.405 196.757 649.975 205.265C652.625 207.845 654.694 210.962 656.042 214.406C657.39 217.85 657.987 221.543 657.792 225.237C657.802 226.238 658.207 227.196 658.92 227.9C659.632 228.605 660.593 229 661.595 229H661.632C662.641 228.99 663.605 228.579 664.311 227.859C665.017 227.138 665.408 226.166 665.398 225.157C665.571 220.474 664.765 215.806 663.032 211.451C661.299 207.096 658.677 203.151 655.333 199.867C644.349 188.958 632.467 189.671 621.998 190.31ZM582.852 159.205H571.45C569.525 159.205 567.679 158.441 566.318 157.08C564.957 155.719 564.193 153.873 564.193 151.948V55.261C564.197 52.4791 564.822 49.7333 566.023 47.2238C567.224 44.7144 568.969 42.5045 571.133 40.7556C573.296 39.0066 575.822 37.7625 578.528 37.1142C581.233 36.4658 584.049 36.4295 586.77 37.0079C591.005 37.9818 594.778 40.3781 597.461 43.7972C600.143 47.2164 601.572 51.4516 601.509 55.7968V151.948C601.509 153.873 600.745 155.719 599.384 157.08C598.023 158.441 596.177 159.205 594.252 159.205H582.852Z" fill="#0A2240"/>
<path d="M575.206 97.5L583 84L590.794 97.5H575.206Z" fill="#004324" stroke="#004234"/>
<circle cx="583" cy="103" r="10" fill="#004234"/>
</g>
<g clip-path="url(#clip7)">
<path d="M681.509 151.948V55.7963C681.572 51.4511 680.143 47.2159 677.46 43.7967C674.778 40.3776 671.005 37.9813 666.77 37.0074C664.049 36.4291 661.233 36.4654 658.528 37.1137C655.822 37.7621 653.296 39.0061 651.133 40.7551C648.969 42.5041 647.224 44.7139 646.023 47.2234C644.822 49.7328 644.197 52.4786 644.193 55.2605V151.948C644.192 153.872 644.957 155.718 646.318 157.079C647.679 158.44 649.525 159.205 651.45 159.205H674.252C676.177 159.205 678.023 158.44 679.384 157.079C680.744 155.718 681.509 153.872 681.509 151.948V151.948Z" fill="#EBA825"/>
<path d="M701.998 190.31C691.812 190.909 683.047 191.449 674.477 182.946C672.8 181.306 671.343 179.456 670.141 177.441C669.499 176.382 669.149 175.171 669.128 173.932C669.107 172.693 669.415 171.471 670.02 170.39C670.626 169.309 671.508 168.409 672.575 167.78C673.643 167.151 674.858 166.817 676.097 166.812H685.312C686.321 166.812 687.288 166.411 688.002 165.698C688.715 164.985 689.116 164.017 689.116 163.009V56.4325C689.229 49.7691 686.88 43.2981 682.518 38.2597C678.155 33.2213 672.087 29.9699 665.476 29.1285C661.825 28.7662 658.138 29.172 654.654 30.32C651.169 31.4679 647.962 33.3325 645.241 35.7938C642.52 38.2552 640.344 41.2588 638.854 44.6116C637.363 47.9643 636.591 51.5919 636.586 55.261V163.009C636.586 164.017 636.987 164.985 637.7 165.698C638.413 166.411 639.381 166.812 640.389 166.812H649.248C651.846 166.828 654.372 167.665 656.466 169.202C658.561 170.74 660.115 172.899 660.909 175.373C662.572 180.289 665.387 184.736 669.119 188.343C680.105 199.258 691.988 198.545 702.454 197.901C712.633 197.282 721.405 196.757 729.975 205.265C732.625 207.845 734.694 210.962 736.042 214.406C737.39 217.85 737.987 221.543 737.792 225.237C737.802 226.238 738.207 227.196 738.92 227.9C739.632 228.605 740.593 229 741.595 229H741.632C742.641 228.99 743.605 228.579 744.311 227.859C745.017 227.138 745.408 226.166 745.398 225.157C745.571 220.474 744.765 215.806 743.032 211.451C741.299 207.096 738.677 203.151 735.333 199.867C724.349 188.958 712.467 189.671 701.998 190.31ZM662.852 159.205H651.45C649.525 159.205 647.679 158.441 646.318 157.08C644.957 155.719 644.193 153.873 644.193 151.948V55.261C644.197 52.4791 644.822 49.7333 646.023 47.2238C647.224 44.7144 648.969 42.5045 651.133 40.7556C653.296 39.0066 655.822 37.7625 658.528 37.1142C661.233 36.4658 664.049 36.4295 666.77 37.0079C671.005 37.9818 674.778 40.3781 677.461 43.7972C680.143 47.2164 681.572 51.4516 681.509 55.7968V151.948C681.509 153.873 680.745 155.719 679.384 157.08C678.023 158.441 676.177 159.205 674.252 159.205H662.852Z" fill="#0A2240"/>
<path d="M655.206 97.5L663 84L670.794 97.5H655.206Z" fill="#004324" stroke="#004234"/>
<circle cx="663" cy="103" r="10" fill="#004234"/>
</g>
<g clip-path="url(#clip8)">
<path d="M761.509 151.948V55.7963C761.572 51.4511 760.143 47.2159 757.46 43.7967C754.778 40.3776 751.005 37.9813 746.77 37.0074C744.049 36.4291 741.233 36.4654 738.528 37.1137C735.822 37.7621 733.296 39.0061 731.133 40.7551C728.969 42.5041 727.224 44.7139 726.023 47.2234C724.822 49.7328 724.197 52.4786 724.193 55.2605V151.948C724.193 153.872 724.957 155.718 726.318 157.079C727.679 158.44 729.525 159.205 731.45 159.205H754.252C756.177 159.205 758.023 158.44 759.384 157.079C760.745 155.718 761.509 153.872 761.509 151.948V151.948Z" fill="#EBA825"/>
<path d="M781.998 190.31C771.812 190.909 763.047 191.449 754.477 182.946C752.8 181.306 751.343 179.456 750.141 177.441C749.499 176.382 749.149 175.171 749.128 173.932C749.107 172.693 749.415 171.471 750.02 170.39C750.626 169.309 751.508 168.409 752.575 167.78C753.643 167.151 754.858 166.817 756.097 166.812H765.312C766.321 166.812 767.288 166.411 768.002 165.698C768.715 164.985 769.116 164.017 769.116 163.009V56.4325C769.229 49.7691 766.88 43.2981 762.518 38.2597C758.155 33.2213 752.087 29.9699 745.476 29.1285C741.825 28.7662 738.138 29.172 734.654 30.32C731.169 31.4679 727.962 33.3325 725.241 35.7938C722.52 38.2552 720.344 41.2588 718.854 44.6116C717.363 47.9643 716.591 51.5919 716.586 55.261V163.009C716.586 164.017 716.987 164.985 717.7 165.698C718.413 166.411 719.381 166.812 720.389 166.812H729.248C731.846 166.828 734.372 167.665 736.466 169.202C738.561 170.74 740.115 172.899 740.909 175.373C742.572 180.289 745.387 184.736 749.119 188.343C760.105 199.258 771.988 198.545 782.454 197.901C792.633 197.282 801.405 196.757 809.975 205.265C812.625 207.845 814.694 210.962 816.042 214.406C817.39 217.85 817.987 221.543 817.792 225.237C817.802 226.238 818.207 227.196 818.92 227.9C819.632 228.605 820.593 229 821.595 229H821.632C822.641 228.99 823.605 228.579 824.311 227.859C825.017 227.138 825.408 226.166 825.398 225.157C825.571 220.474 824.765 215.806 823.032 211.451C821.299 207.096 818.677 203.151 815.333 199.867C804.349 188.958 792.467 189.671 781.998 190.31ZM742.852 159.205H731.45C729.525 159.205 727.679 158.441 726.318 157.08C724.957 155.719 724.193 153.873 724.193 151.948V55.261C724.197 52.4791 724.822 49.7333 726.023 47.2238C727.224 44.7144 728.969 42.5045 731.133 40.7556C733.296 39.0066 735.822 37.7625 738.528 37.1142C741.233 36.4658 744.049 36.4295 746.77 37.0079C751.005 37.9818 754.778 40.3781 757.461 43.7972C760.143 47.2164 761.572 51.4516 761.509 55.7968V151.948C761.509 153.873 760.745 155.719 759.384 157.08C758.023 158.441 756.177 159.205 754.252 159.205H742.852Z" fill="#0A2240"/>
<path d="M735.206 97.5L743 84L750.794 97.5H735.206Z" fill="#004324" stroke="#004234"/>
<circle cx="743" cy="103" r="10" fill="#004234"/>
</g>
<g clip-path="url(#clip9)">
<path d="M841.509 151.948V55.7963C841.572 51.4511 840.143 47.2159 837.46 43.7967C834.778 40.3776 831.005 37.9813 826.77 37.0074C824.049 36.4291 821.233 36.4654 818.528 37.1137C815.822 37.7621 813.296 39.0061 811.133 40.7551C808.969 42.5041 807.224 44.7139 806.023 47.2234C804.822 49.7328 804.197 52.4786 804.193 55.2605V151.948C804.193 153.872 804.957 155.718 806.318 157.079C807.679 158.44 809.525 159.205 811.45 159.205H834.252C836.177 159.205 838.023 158.44 839.384 157.079C840.745 155.718 841.509 153.872 841.509 151.948V151.948Z" fill="#EBA825"/>
<path d="M861.998 190.31C851.812 190.909 843.047 191.449 834.477 182.946C832.8 181.306 831.343 179.456 830.141 177.441C829.499 176.382 829.149 175.171 829.128 173.932C829.107 172.693 829.415 171.471 830.02 170.39C830.626 169.309 831.508 168.409 832.575 167.78C833.643 167.151 834.858 166.817 836.097 166.812H845.312C846.321 166.812 847.288 166.411 848.002 165.698C848.715 164.985 849.116 164.017 849.116 163.009V56.4325C849.229 49.7691 846.88 43.2981 842.518 38.2597C838.155 33.2213 832.087 29.9699 825.476 29.1285C821.825 28.7662 818.138 29.172 814.654 30.32C811.169 31.4679 807.962 33.3325 805.241 35.7938C802.52 38.2552 800.344 41.2588 798.854 44.6116C797.363 47.9643 796.591 51.5919 796.586 55.261V163.009C796.586 164.017 796.987 164.985 797.7 165.698C798.413 166.411 799.381 166.812 800.389 166.812H809.248C811.846 166.828 814.372 167.665 816.466 169.202C818.561 170.74 820.115 172.899 820.909 175.373C822.572 180.289 825.387 184.736 829.119 188.343C840.105 199.258 851.988 198.545 862.454 197.901C872.633 197.282 881.405 196.757 889.975 205.265C892.625 207.845 894.694 210.962 896.042 214.406C897.39 217.85 897.987 221.543 897.792 225.237C897.802 226.238 898.207 227.196 898.92 227.9C899.632 228.605 900.593 229 901.595 229H901.632C902.641 228.99 903.605 228.579 904.311 227.859C905.017 227.138 905.408 226.166 905.398 225.157C905.571 220.474 904.765 215.806 903.032 211.451C901.299 207.096 898.677 203.151 895.333 199.867C884.349 188.958 872.467 189.671 861.998 190.31ZM822.852 159.205H811.45C809.525 159.205 807.679 158.441 806.318 157.08C804.957 155.719 804.193 153.873 804.193 151.948V55.261C804.197 52.4791 804.822 49.7333 806.023 47.2238C807.224 44.7144 808.969 42.5045 811.133 40.7556C813.296 39.0066 815.822 37.7625 818.528 37.1142C821.233 36.4658 824.049 36.4295 826.77 37.0079C831.005 37.9818 834.778 40.3781 837.461 43.7972C840.143 47.2164 841.572 51.4516 841.509 55.7968V151.948C841.509 153.873 840.745 155.719 839.384 157.08C838.023 158.441 836.177 159.205 834.252 159.205H822.852Z" fill="#0A2240"/>
<path d="M815.206 97.5L823 84L830.794 97.5H815.206Z" fill="#004324" stroke="#004234"/>
<circle cx="823" cy="103" r="10" fill="#004234"/>
</g>
<g clip-path="url(#clip10)">
<path d="M921.509 151.948V55.7963C921.572 51.4511 920.143 47.2159 917.46 43.7967C914.778 40.3776 911.005 37.9813 906.77 37.0074C904.049 36.4291 901.233 36.4654 898.528 37.1137C895.822 37.7621 893.296 39.0061 891.133 40.7551C888.969 42.5041 887.224 44.7139 886.023 47.2234C884.822 49.7328 884.197 52.4786 884.193 55.2605V151.948C884.193 153.872 884.957 155.718 886.318 157.079C887.679 158.44 889.525 159.205 891.45 159.205H914.252C916.177 159.205 918.023 158.44 919.384 157.079C920.745 155.718 921.509 153.872 921.509 151.948V151.948Z" fill="#EBA825"/>
<path d="M941.998 190.31C931.812 190.909 923.047 191.449 914.477 182.946C912.8 181.306 911.343 179.456 910.141 177.441C909.499 176.382 909.149 175.171 909.128 173.932C909.107 172.693 909.415 171.471 910.02 170.39C910.626 169.309 911.508 168.409 912.575 167.78C913.643 167.151 914.858 166.817 916.097 166.812H925.312C926.321 166.812 927.288 166.411 928.002 165.698C928.715 164.985 929.116 164.017 929.116 163.009V56.4325C929.229 49.7691 926.88 43.2981 922.518 38.2597C918.155 33.2213 912.087 29.9699 905.476 29.1285C901.825 28.7662 898.138 29.172 894.654 30.32C891.169 31.4679 887.962 33.3325 885.241 35.7938C882.52 38.2552 880.344 41.2588 878.854 44.6116C877.363 47.9643 876.591 51.5919 876.586 55.261V163.009C876.586 164.017 876.987 164.985 877.7 165.698C878.413 166.411 879.381 166.812 880.389 166.812H889.248C891.846 166.828 894.372 167.665 896.466 169.202C898.561 170.74 900.115 172.899 900.909 175.373C902.572 180.289 905.387 184.736 909.119 188.343C920.105 199.258 931.988 198.545 942.454 197.901C952.633 197.282 961.405 196.757 969.975 205.265C972.625 207.845 974.694 210.962 976.042 214.406C977.39 217.85 977.987 221.543 977.792 225.237C977.802 226.238 978.207 227.196 978.92 227.9C979.632 228.605 980.593 229 981.595 229H981.632C982.641 228.99 983.605 228.579 984.311 227.859C985.017 227.138 985.408 226.166 985.398 225.157C985.571 220.474 984.765 215.806 983.032 211.451C981.299 207.096 978.677 203.151 975.333 199.867C964.349 188.958 952.467 189.671 941.998 190.31ZM902.852 159.205H891.45C889.525 159.205 887.679 158.441 886.318 157.08C884.957 155.719 884.193 153.873 884.193 151.948V55.261C884.197 52.4791 884.822 49.7333 886.023 47.2238C887.224 44.7144 888.969 42.5045 891.133 40.7556C893.296 39.0066 895.822 37.7625 898.528 37.1142C901.233 36.4658 904.049 36.4295 906.77 37.0079C911.005 37.9818 914.778 40.3781 917.461 43.7972C920.143 47.2164 921.572 51.4516 921.509 55.7968V151.948C921.509 153.873 920.745 155.719 919.384 157.08C918.023 158.441 916.177 159.205 914.252 159.205H902.852Z" fill="#0A2240"/>
<path d="M895.206 97.5L903 84L910.794 97.5H895.206Z" fill="#004324" stroke="#004234"/>
<circle cx="903" cy="103" r="10" fill="#004234"/>
</g>
<g clip-path="url(#clip11)">
<path d="M1001.51 151.948V55.7963C1001.57 51.4511 1000.14 47.2159 997.46 43.7967C994.778 40.3776 991.005 37.9813 986.77 37.0074C984.049 36.4291 981.233 36.4654 978.528 37.1137C975.822 37.7621 973.296 39.0061 971.133 40.7551C968.969 42.5041 967.224 44.7139 966.023 47.2234C964.822 49.7328 964.197 52.4786 964.193 55.2605V151.948C964.193 153.872 964.957 155.718 966.318 157.079C967.679 158.44 969.525 159.205 971.45 159.205H994.252C996.177 159.205 998.023 158.44 999.384 157.079C1000.74 155.718 1001.51 153.872 1001.51 151.948V151.948Z" fill="#EBA825"/>
<path d="M1022 190.31C1011.81 190.909 1003.05 191.449 994.477 182.946C992.8 181.306 991.343 179.456 990.141 177.441C989.499 176.382 989.149 175.171 989.128 173.932C989.107 172.693 989.415 171.471 990.02 170.39C990.626 169.309 991.508 168.409 992.575 167.78C993.643 167.151 994.858 166.817 996.097 166.812H1005.31C1006.32 166.812 1007.29 166.411 1008 165.698C1008.71 164.985 1009.12 164.017 1009.12 163.009V56.4325C1009.23 49.7691 1006.88 43.2981 1002.52 38.2597C998.155 33.2213 992.087 29.9699 985.476 29.1285C981.825 28.7662 978.138 29.172 974.654 30.32C971.169 31.4679 967.962 33.3325 965.241 35.7938C962.52 38.2552 960.344 41.2588 958.854 44.6116C957.363 47.9643 956.591 51.5919 956.586 55.261V163.009C956.586 164.017 956.987 164.985 957.7 165.698C958.413 166.411 959.381 166.812 960.389 166.812H969.248C971.846 166.828 974.372 167.665 976.466 169.202C978.561 170.74 980.115 172.899 980.909 175.373C982.572 180.289 985.387 184.736 989.119 188.343C1000.11 199.258 1011.99 198.545 1022.45 197.901C1032.63 197.282 1041.41 196.757 1049.98 205.265C1052.63 207.845 1054.69 210.962 1056.04 214.406C1057.39 217.85 1057.99 221.543 1057.79 225.237C1057.8 226.238 1058.21 227.196 1058.92 227.9C1059.63 228.605 1060.59 229 1061.6 229H1061.63C1062.64 228.99 1063.6 228.579 1064.31 227.859C1065.02 227.138 1065.41 226.166 1065.4 225.157C1065.57 220.474 1064.77 215.806 1063.03 211.451C1061.3 207.096 1058.68 203.151 1055.33 199.867C1044.35 188.958 1032.47 189.671 1022 190.31ZM982.852 159.205H971.45C969.525 159.205 967.679 158.441 966.318 157.08C964.957 155.719 964.193 153.873 964.193 151.948V55.261C964.197 52.4791 964.822 49.7333 966.023 47.2238C967.224 44.7144 968.969 42.5045 971.133 40.7556C973.296 39.0066 975.822 37.7625 978.528 37.1142C981.233 36.4658 984.049 36.4295 986.77 37.0079C991.005 37.9818 994.778 40.3781 997.461 43.7972C1000.14 47.2164 1001.57 51.4516 1001.51 55.7968V151.948C1001.51 153.873 1000.74 155.719 999.384 157.08C998.023 158.441 996.177 159.205 994.252 159.205H982.852Z" fill="#0A2240"/>
<path d="M975.206 97.5L983 84L990.794 97.5H975.206Z" fill="#004324" stroke="#004234"/>
<circle cx="983" cy="103" r="10" fill="#004234"/>
<path d="M1034.69 50.3756C1036.01 50.3757 1037.31 49.9834 1038.41 49.2484C1039.51 48.5134 1040.36 47.4688 1040.87 46.2466C1041.38 45.0244 1041.51 43.6796 1041.25 42.3822C1040.99 41.0848 1040.36 39.8932 1039.42 38.958C1038.48 38.0227 1037.29 37.386 1035.99 37.1282C1034.7 36.8704 1033.35 37.0032 1032.13 37.5098C1030.91 38.0164 1029.86 38.8739 1029.13 39.9741C1028.39 41.0742 1028 42.3675 1028 43.6903C1028 45.4629 1028.71 47.1621 1029.96 48.4153C1031.22 49.6685 1032.92 50.3735 1034.69 50.3756V50.3756Z" fill="#0A2240"/>
<path d="M1070.22 78.8059H1066.37C1065.02 78.8059 1063.72 78.2659 1062.77 77.3048C1061.81 76.3437 1061.28 75.0402 1061.28 73.681V69.8032C1061.28 68.7945 1060.88 67.8272 1060.17 67.1139C1059.46 66.4007 1058.5 66 1057.5 66C1056.5 66 1055.54 66.4007 1054.83 67.1139C1054.12 67.8272 1053.72 68.7945 1053.72 69.8032V73.681C1053.72 75.0403 1053.18 76.3438 1052.23 77.305C1051.27 78.2661 1049.98 78.8061 1048.63 78.8061H1044.78C1043.78 78.8061 1042.82 79.2068 1042.11 79.92C1041.4 80.6333 1041 81.6006 1041 82.6093C1041 83.618 1041.4 84.5854 1042.11 85.2986C1042.82 86.0118 1043.78 86.4125 1044.78 86.4125H1048.63C1049.3 86.4125 1049.96 86.5451 1050.58 86.8026C1051.2 87.0602 1051.76 87.4377 1052.23 87.9136C1052.7 88.3895 1053.08 88.9545 1053.33 89.5763C1053.59 90.1981 1053.72 90.8646 1053.72 91.5376V95.4202C1053.72 96.4288 1054.12 97.3962 1054.83 98.1094C1055.54 98.8227 1056.5 99.2234 1057.5 99.2234C1058.5 99.2234 1059.46 98.8227 1060.17 98.1094C1060.88 97.3962 1061.28 96.4288 1061.28 95.4202V91.5374C1061.28 90.8643 1061.41 90.1979 1061.66 89.5761C1061.92 88.9543 1062.3 88.3893 1062.77 87.9133C1063.24 87.4374 1063.8 87.0599 1064.42 86.8024C1065.04 86.5448 1065.7 86.4123 1066.37 86.4123H1070.22C1071.22 86.4123 1072.18 86.0116 1072.89 85.2983C1073.6 84.5851 1074 83.6177 1074 82.6091C1074 81.6004 1073.6 80.633 1072.89 79.9198C1072.18 79.2065 1071.22 78.8059 1070.22 78.8059V78.8059Z" fill="#0A2240"/>
</g>
<defs>
<clipPath id="clip0">
<rect width="158.841" height="200" fill="white" transform="translate(38 29)"/>
</clipPath>
<clipPath id="clip1">
<rect width="158.841" height="200" fill="white" transform="translate(118 29)"/>
</clipPath>
<clipPath id="clip2">
<rect width="158.841" height="200" fill="white" transform="translate(198 29)"/>
</clipPath>
<clipPath id="clip3">
<rect width="158.841" height="200" fill="white" transform="translate(278 29)"/>
</clipPath>
<clipPath id="clip4">
<rect width="158.841" height="200" fill="white" transform="translate(358 29)"/>
</clipPath>
<clipPath id="clip5">
<rect width="158.841" height="200" fill="white" transform="translate(438 29)"/>
</clipPath>
<clipPath id="clip6">
<rect width="158.841" height="200" fill="white" transform="translate(520 29)"/>
</clipPath>
<clipPath id="clip7">
<rect width="158.841" height="200" fill="white" transform="translate(600 29)"/>
</clipPath>
<clipPath id="clip8">
<rect width="158.841" height="200" fill="white" transform="translate(680 29)"/>
</clipPath>
<clipPath id="clip9">
<rect width="158.841" height="200" fill="white" transform="translate(760 29)"/>
</clipPath>
<clipPath id="clip10">
<rect width="158.841" height="200" fill="white" transform="translate(840 29)"/>
</clipPath>
<clipPath id="clip11">
<rect width="158.841" height="200" fill="white" transform="translate(920 29)"/>
</clipPath>
</defs>
</svg>
