<svg width="159" height="200" viewBox="0 0 159 200" fill="none" xmlns="http://www.w3.org/2000/svg">
<g clip-path="url(#clip0)">
<path d="M81.509 122.948V26.7963C81.5715 22.4511 80.1426 18.2159 77.4605 14.7967C74.7783 11.3776 71.0051 8.98132 66.7701 8.00743C64.0489 7.42906 61.233 7.46537 58.5277 8.11372C55.8224 8.76207 53.296 10.0061 51.1326 11.7551C48.9693 13.5041 47.2236 15.7139 46.023 18.2234C44.8223 20.7328 44.197 23.4786 44.1925 26.2605V122.948C44.1925 124.872 44.957 126.718 46.318 128.079C47.6789 129.44 49.5248 130.205 51.4495 130.205H74.252C76.1767 130.205 78.0226 129.44 79.3835 128.079C80.7445 126.718 81.509 124.872 81.509 122.948Z" fill="#F2A900"/>
<path d="M101.998 161.31C91.8118 161.909 83.0466 162.449 74.477 153.946C72.8001 152.306 71.3428 150.456 70.1413 148.441C69.499 147.382 69.1493 146.171 69.128 144.932C69.1068 143.693 69.4147 142.471 70.0203 141.39C70.6259 140.309 71.5076 139.409 72.5752 138.78C73.6428 138.151 74.8582 137.817 76.0972 137.812H85.3124C86.3211 137.812 87.2884 137.411 88.0017 136.698C88.7149 135.985 89.1156 135.017 89.1156 134.009V27.4325C89.2292 20.7691 86.8797 14.2981 82.5176 9.25973C78.1554 4.22133 72.0873 0.969892 65.4763 0.128534C61.8251 -0.233817 58.1384 0.172022 54.6534 1.31995C51.1685 2.46788 47.9624 4.33249 45.2412 6.79385C42.5201 9.25521 40.3443 12.2588 38.8537 15.6116C37.363 18.9643 36.5906 22.5919 36.5861 26.261V134.009C36.5861 135.017 36.9868 135.985 37.7 136.698C38.4132 137.411 39.3806 137.812 40.3893 137.812H49.2482C51.846 137.828 54.3723 138.665 56.4664 140.202C58.5605 141.74 60.1153 143.899 60.9089 146.373C62.5722 151.289 65.3871 155.736 69.1187 159.343C80.105 170.258 91.9875 169.545 102.454 168.901C112.633 168.282 121.405 167.757 129.975 176.265C132.625 178.845 134.694 181.962 136.042 185.406C137.39 188.85 137.986 192.543 137.792 196.237C137.802 197.238 138.207 198.196 138.919 198.9C139.632 199.605 140.593 200 141.595 200H141.632C142.641 199.99 143.605 199.579 144.311 198.859C145.017 198.138 145.408 197.166 145.398 196.157C145.571 191.474 144.765 186.806 143.032 182.451C141.299 178.096 138.677 174.151 135.333 170.867C124.349 159.958 112.467 160.671 101.998 161.31ZM62.852 130.205H51.4495C49.5248 130.205 47.6789 129.441 46.318 128.08C44.957 126.719 44.1924 124.873 44.1925 122.948V26.261C44.1969 23.4791 44.8223 20.7333 46.0229 18.2238C47.2236 15.7144 48.9693 13.5045 51.1326 11.7556C53.296 10.0066 55.8224 8.76255 58.5277 8.1142C61.233 7.46585 64.0489 7.42954 66.77 8.00792C71.0051 8.9818 74.7783 11.3781 77.4604 14.7972C80.1426 18.2164 81.5715 22.4516 81.509 26.7968V122.948C81.509 124.873 80.7445 126.719 79.3835 128.08C78.0226 129.441 76.1767 130.205 74.252 130.205H62.852Z" fill="#004324"/>
<path d="M155.038 81.2042H151.157C149.798 81.2042 148.495 80.6642 147.533 79.7032C146.572 78.7421 146.032 77.4385 146.032 76.0793V72.2015C146.032 71.1928 145.632 70.2255 144.918 69.5123C144.205 68.799 143.238 68.3983 142.229 68.3983C141.22 68.3983 140.253 68.799 139.54 69.5123C138.827 70.2255 138.426 71.1928 138.426 72.2015V76.0793C138.426 77.4386 137.886 78.7422 136.925 79.7033C135.964 80.6644 134.66 81.2044 133.301 81.2044H129.423C128.414 81.2044 127.447 81.6051 126.734 82.3184C126.02 83.0316 125.62 83.999 125.62 85.0076C125.62 86.0163 126.02 86.9837 126.734 87.6969C127.447 88.4101 128.414 88.8108 129.423 88.8108H133.301C133.974 88.8108 134.64 88.9434 135.262 89.2009C135.884 89.4585 136.449 89.836 136.925 90.3119C137.401 90.7878 137.778 91.3528 138.036 91.9746C138.293 92.5964 138.426 93.2629 138.426 93.9359V97.8185C138.426 98.8271 138.827 99.7945 139.54 100.508C140.253 101.221 141.22 101.622 142.229 101.622C143.238 101.622 144.205 101.221 144.918 100.508C145.632 99.7945 146.032 98.8271 146.032 97.8185V93.9357C146.032 93.2626 146.165 92.5962 146.422 91.9744C146.68 91.3526 147.057 90.7876 147.533 90.3117C148.009 89.8357 148.574 89.4582 149.196 89.2007C149.818 88.9431 150.484 88.8106 151.157 88.8106H155.038C156.046 88.8106 157.014 88.4099 157.727 87.6967C158.44 86.9834 158.841 86.0161 158.841 85.0074C158.841 83.9987 158.44 83.0313 157.727 82.3181C157.014 81.6049 156.046 81.2042 155.038 81.2042V81.2042Z" fill="#004324"/>
<path d="M23.3251 158.296H21.5466C20.9864 158.296 20.4317 158.185 19.9142 157.971C19.3967 157.757 18.9264 157.443 18.5303 157.046C18.1342 156.65 17.82 156.18 17.6057 155.663C17.3913 155.145 17.281 154.59 17.281 154.03V152.252C17.281 151.258 16.8863 150.305 16.1837 149.602C15.4811 148.9 14.5281 148.505 13.5344 148.505C12.5408 148.505 11.5878 148.9 10.8852 149.602C10.1826 150.305 9.78788 151.258 9.78788 152.252V154.03C9.7879 154.59 9.67758 155.145 9.46322 155.662C9.24886 156.18 8.93466 156.65 8.53855 157.046C8.14245 157.442 7.6722 157.757 7.15466 157.971C6.63713 158.185 6.08243 158.296 5.52226 158.296H3.74641C2.7528 158.296 1.79989 158.69 1.0973 159.393C0.39471 160.095 0 161.048 0 162.042C0 163.036 0.39471 163.989 1.0973 164.691C1.79989 165.394 2.7528 165.788 3.74641 165.788H5.52241C6.65371 165.788 7.73869 166.238 8.53864 167.038C9.3386 167.838 9.78802 168.923 9.78803 170.054V171.832C9.78803 172.826 10.1828 173.779 10.8854 174.482C11.588 175.184 12.5409 175.579 13.5346 175.579C14.5282 175.579 15.4812 175.184 16.1838 174.482C16.8864 173.779 17.2812 172.826 17.2812 171.832V170.054C17.2812 169.494 17.3915 168.939 17.6059 168.422C17.8202 167.904 18.1344 167.434 18.5305 167.038C18.9266 166.642 19.3969 166.328 19.9144 166.113C20.4319 165.899 20.9866 165.789 21.5467 165.789H23.3252C24.3188 165.789 25.2717 165.394 25.9743 164.691C26.6769 163.989 27.0716 163.036 27.0716 162.042C27.0716 161.049 26.6769 160.096 25.9743 159.393C25.2717 158.69 24.3188 158.296 23.3252 158.296H23.3251Z" fill="#004324"/>
<path d="M118.227 57.4492C119.55 57.4492 120.843 57.057 121.943 56.322C123.043 55.587 123.9 54.5424 124.406 53.3202C124.912 52.098 125.044 50.7532 124.786 49.4558C124.528 48.1584 123.891 46.9668 122.955 46.0316C122.019 45.0964 120.828 44.4596 119.53 44.2018C118.233 43.944 116.888 44.0768 115.666 44.5834C114.444 45.09 113.4 45.9475 112.665 47.0477C111.93 48.1478 111.539 49.4411 111.539 50.7639C111.542 52.5365 112.247 54.2357 113.501 55.4889C114.755 56.7421 116.454 57.4471 118.227 57.4492Z" fill="#004324"/>
</g>
<defs>
<clipPath id="clip0">
<rect width="158.841" height="200" fill="white"/>
</clipPath>
</defs>
</svg>
