<svg width="27" height="28" viewBox="0 0 27 28" fill="none" xmlns="http://www.w3.org/2000/svg">
<path d="M23.2634 9.79062H21.4896C20.9309 9.79064 20.3777 9.68032 19.8615 9.46596C19.3454 9.2516 18.8764 8.93739 18.4813 8.54128C18.0863 8.14518 17.7729 7.67494 17.5591 7.1574C17.3453 6.63986 17.2353 6.08517 17.2353 5.525V3.74657C17.2353 2.75292 16.8416 1.79996 16.1409 1.09734C15.4401 0.394726 14.4897 0 13.4987 0C12.5076 0 11.5572 0.394726 10.8564 1.09734C10.1557 1.79996 9.762 2.75292 9.762 3.74657V5.52484C9.76202 6.08502 9.65199 6.63971 9.4382 7.15725C9.22441 7.67479 8.91103 8.14504 8.51598 8.54114C8.12092 8.93724 7.65192 9.25145 7.13575 9.46581C6.61958 9.68017 6.06635 9.79049 5.50765 9.79047H3.73651C2.74552 9.79047 1.79513 10.1852 1.0944 10.8878C0.393666 11.5904 0 12.5433 0 13.5369C0 14.5305 0.393666 15.4834 1.0944 16.186C1.79513 16.8886 2.74552 17.2833 3.73651 17.2833H5.50781C6.63612 17.2833 7.71822 17.7327 8.51607 18.5327C9.31391 19.3326 9.76214 20.4176 9.76215 21.5489V23.3273C9.76215 24.321 10.1558 25.2739 10.8566 25.9765C11.5574 26.6791 12.5078 27.0739 13.4988 27.0739C14.4898 27.0739 15.4403 26.6791 16.141 25.9765C16.8418 25.2739 17.2355 24.321 17.2355 23.3273V21.549C17.2355 20.9889 17.3455 20.4342 17.5593 19.9166C17.7731 19.3991 18.0865 18.9289 18.4815 18.5328C18.8766 18.1367 19.3456 17.8225 19.8617 17.6081C20.3779 17.3938 20.9311 17.2834 21.4898 17.2834H23.2635C24.2545 17.2834 25.2049 16.8887 25.9056 16.1862C26.6063 15.4836 27 14.5306 27 13.537C27 12.5434 26.6063 11.5905 25.9056 10.8879C25.2049 10.1853 24.2545 9.79062 23.2635 9.79062H23.2634Z" fill="#0A2240"/>
</svg>
